<svg width="1600" height="1127" fill="none" xmlns="http://www.w3.org/2000/svg"><g clip-path="url(#clip0)"><path fill="#FAFAFA" d="M0 0h1600v1127H0z"/><g opacity=".8"><g opacity=".6"><path opacity=".6" d="M1906.09 233.263c-.41-1.101-.82-2.324-1.26-3.588-4.81-13.577-12.07-34.127-23.23-41.833-15.61-10.804-38.23-13.169-60.15-15.452-10.89-1.142-21.2-2.202-30.28-4.281-3.63-.816-7.54-1.591-11.7-2.406-21.03-4.159-47.15-9.296-56.81-25.931-6.44-11.09-10.96-24.831-13.53-40.813-8.44-53.208 14.22-114.489 59.13-159.95 17.69-17.9 37.86-33.433 59.38-47.215h-2c-21.11 13.618-40.87 28.867-58.23 46.48-21.48 21.733-38.39 47.582-48.95 74.777-11.21 28.867-14.83 58.631-10.47 86.03 2.57 16.146 7.17 29.968 13.65 41.18 9.86 17.043 36.31 22.262 57.58 26.461 4.16.816 8.07 1.59 11.66 2.406 9.17 2.079 19.52 3.18 30.44 4.322 21.77 2.283 44.22 4.648 59.58 15.249 10.89 7.542 18.1 27.888 22.83 41.343.44 1.264.89 2.487 1.26 3.628 11.29 31.395 13.81 67.234 7.29 103.603-12.3 68.661-54.03 134.753-114.47 181.315-106.86 82.319-250.96 111.308-378.11 136.913-35.58 7.176-74.7 17.532-116.07 28.5-132.65 35.186-282.99 75.062-394.61 30.335l-8.477-3.425c-61.089-24.586-124.257-49.987-194.923-29.234-41.935 12.313-76.575 38.081-110.074 62.993-30.28 22.507-61.579 45.788-98.257 59.202-40.223 14.718-84.44 17.736-127.191 20.63-32.032 2.202-65.123 4.445-96.585 11.539-2.16.489-4.32.979-6.439 1.509-90.635 22.465-162.891 82.564-232.823 140.705l-9.374 7.787c-46.662 38.738-98.949 79.468-157.756 105.888v1.18c59.133-26.42 111.705-67.4 158.53-106.252l9.374-7.788c69.81-58.06 141.984-118.036 232.334-140.46 2.12-.53 4.279-1.02 6.399-1.509 31.339-7.094 64.431-9.337 96.381-11.538 42.873-2.936 87.172-5.953 127.558-20.713 36.841-13.495 68.221-36.817 98.582-59.364 33.418-24.831 67.977-50.558 109.708-62.79 70.218-20.631 130.37 3.588 194.067 29.193l8.477 3.384c111.989 44.85 262.569 4.934 395.429-30.293 41.41-10.968 80.49-21.324 116.02-28.5 127.28-25.605 271.54-54.676 378.64-137.118 60.64-46.725 102.5-113.021 114.85-181.967 6.52-36.572 3.99-72.574-7.38-104.132z" fill="#B9B9B9"/><path opacity=".6" d="M1867.5 227.514c-1.31-5.545-3.47-14.8-6.69-23.526-3.66-9.948-7.78-16.961-12.22-20.916-12.88-11.375-32.32-15.452-51.15-19.448-9.53-1.998-18.5-3.914-26.49-6.687-3.05-1.06-6.35-2.12-9.82-3.221-5.54-1.753-11.25-3.547-16.91-5.708-5.75-2.202-10.47-4.322-14.51-6.442-9.7-5.178-16.06-10.356-19.97-16.35a71.205 71.205 0 01-4.73-8.358c-5.38-11.457-8.47-21.406-9.82-31.272-1.67-12.11-1.83-24.545-.49-37.022 4.32-41.302 25.19-84.684 57.22-119.014 8.64-9.255 18.26-18.266 28.49-26.747 2.52-2.12 5.17-4.24 7.86-6.32 2.08-1.63 4.2-3.18 6.32-4.729h-1.83a372.276 372.276 0 00-5.26 3.955c-2.69 2.12-5.34 4.24-7.91 6.36-10.31 8.522-19.93 17.573-28.61 26.87-32.19 34.493-53.14 78.078-57.5 119.625a156.202 156.202 0 00.49 37.266c1.34 9.949 4.52 19.979 9.9 31.558 1.27 2.691 2.86 5.504 4.81 8.481 4 6.156 10.48 11.457 20.38 16.716 4.03 2.161 8.84 4.281 14.63 6.483 5.7 2.161 11.45 3.996 16.99 5.749 3.47 1.101 6.77 2.12 9.78 3.18 8.03 2.814 17.08 4.689 26.62 6.728 18.66 3.955 37.98 8.032 50.61 19.163 4.32 3.832 8.36 10.723 11.94 20.508 3.18 8.644 5.34 17.858 6.64 23.403 7.06 30.009 5.67 62.301-4.11 95.897-6.16 21.202-15.65 42.362-28.2 62.871-11.82 19.367-26.04 37.796-42.22 54.798a378.85 378.85 0 01-50.37 44.605 483.677 483.677 0 01-17.2 12.109c-43.36 29.234-93.41 53.494-152.99 74.084-32.52 11.253-68.75 21.731-114.03 32.984-23.76 5.872-47.43 11.376-75.72 17.818-31.01 7.135-64.63 16.513-100.21 26.42-65.65 18.307-133.51 37.226-200.79 46.929-40.67 5.872-75.19 7.299-105.47 4.322-29.18-2.895-55.547-9.54-80.692-20.427l-4.401-1.875c-4.809-2.08-9.618-4.159-14.468-6.198-40.06-16.961-83.503-32.454-129.921-30.905-15.69.53-30.728 2.895-45.929 7.257-19.643 5.627-38.92 14.352-60.763 27.522-6.765 4.077-13.979 8.725-22.129 14.229-7.784 5.26-15.65 10.723-23.189 15.983-29.954 20.916-60.885 42.526-96.382 54.839-34.029 11.824-70.829 14.759-103.309 17.328l-5.176.408c-11.737.938-23.881 1.875-35.903 3.139-27.835 2.895-49.067 6.238-68.874 10.886-20.376 4.771-41.853 11.661-65.653 21.039-22.251 8.807-45.318 20.182-70.585 34.779-20.091 11.579-41.201 25.156-66.51 42.648-9.372 6.482-18.786 13.128-27.874 19.53-4.28 3.017-8.518 6.034-12.797 9.01-25.675 18.022-56.199 38.938-87.742 57.285-29.953 17.573-57.747 30.577-85.622 39.957v1.14c28.079-9.42 56.076-22.504 86.234-40.2 31.583-18.388 62.108-39.304 87.823-57.325 4.238-2.977 8.517-5.994 12.796-9.011 9.088-6.401 18.502-13.047 27.876-19.53 25.267-17.491 46.377-31.028 66.428-42.607 25.185-14.556 48.211-25.891 70.421-34.697 23.719-9.337 45.114-16.228 65.45-20.957 19.725-4.649 40.916-7.992 68.71-10.846 12.022-1.264 24.167-2.202 35.904-3.139l5.175-.408c32.562-2.61 69.444-5.545 103.636-17.41 35.618-12.395 66.672-34.045 96.667-54.961 7.58-5.26 15.405-10.723 23.188-15.983 8.11-5.463 15.324-10.111 22.089-14.188 21.762-13.088 40.957-21.814 60.478-27.4 15.078-4.321 29.994-6.645 45.603-7.175 46.173-1.55 89.453 13.903 129.391 30.823 4.85 2.039 9.659 4.118 14.468 6.198l4.401 1.916c25.226 10.927 51.757 17.614 81.058 20.509 30.403 2.976 65.003 1.549 105.793-4.322 67.37-9.704 135.3-28.663 200.96-46.97 35.57-9.908 69.2-19.285 100.17-26.42 28.28-6.442 52-11.947 75.76-17.818 45.32-11.253 81.59-21.772 114.15-33.026 59.7-20.63 109.83-44.931 153.27-74.205 5.83-3.955 11.66-8.032 17.24-12.15a378.692 378.692 0 0050.54-44.728c16.22-17.083 30.48-35.553 42.34-54.961 12.59-20.59 22.13-41.791 28.32-63.115 9.82-33.964 11.21-66.378 4.12-96.59z" fill="#B9B9B9"/><path opacity=".6" d="M1828.94 221.805c-.85-8.522-2.2-16.146-3.95-22.71-2.53-9.459-5.66-16.391-9.33-20.713-10.19-11.905-26.53-17.776-42.34-23.403-8.07-2.895-15.69-5.626-22.42-9.051a246.15 246.15 0 00-8.07-3.955c-4.72-2.284-9.66-4.648-14.42-7.299-4.94-2.731-8.97-5.218-12.39-7.502-7.01-4.688-14.23-9.826-18.99-16.349-1.63-2.202-3.47-4.852-5.02-7.951-4.32-8.725-9.21-18.592-10.59-30.457a155.616 155.616 0 01.08-35.961c4.52-39.753 24.29-82.115 54.24-116.201 8.11-9.215 17.08-18.185 26.65-26.706.66-.571 1.35-1.182 2.04-1.794h-1.67c-.41.326-.81.693-1.18 1.019-9.62 8.522-18.63 17.532-26.78 26.788-30.07 34.248-49.92 76.815-54.48 116.772a157.38 157.38 0 00-.08 36.165c1.38 12.028 6.31 21.976 10.75 30.864 1.55 3.099 3.43 5.79 5.06 8.032 4.89 6.646 12.18 11.824 19.27 16.595 3.47 2.324 7.54 4.77 12.47 7.543 4.81 2.691 9.74 5.055 14.51 7.339 2.86 1.386 5.55 2.65 8.07 3.955 6.81 3.506 14.47 6.238 22.58 9.133 15.69 5.626 31.87 11.416 41.85 23.077 3.59 4.159 6.65 11.008 9.13 20.304 1.75 6.483 3.06 14.067 3.91 22.547 2.9 28.378-2.2 57.245-15.56 88.15-7.95 18.389-19 36.818-32.89 54.798-12.76 16.554-27.63 32.659-44.22 47.949-16.38 15.045-33.21 28.662-50.04 40.486-5.42 3.833-11.05 7.625-16.71 11.335-42.79 28.052-91.74 52.433-145.53 72.534-30.41 11.416-64.68 22.303-107.88 34.33-25.02 6.891-50.29 13.496-71.68 19-25.88 6.769-53.51 14.882-82.73 23.526-63.45 18.714-135.38 39.916-204.09 50.395-39.78 6.034-72.748 7.298-100.868 3.873-26.327-3.262-51.186-10.519-75.964-22.139l-.652-.286c-5.584-2.609-11.371-5.3-17.117-7.91-47.722-21.528-87.212-30.946-124.257-29.56-15.038.571-29.383 2.814-43.972 6.85-18.747 5.178-37.412 13.251-58.685 25.361-6.276 3.587-12.919 7.624-21.518 13.087a1828.474 1828.474 0 00-20.621 13.333c-31.421 20.468-61.048 39.794-95.77 51.169-29.098 9.541-59.011 12.069-90.676 14.719l-7.499.652c-11.859 1.02-25.634 2.243-39.205 4.078-24.166 3.18-45.562 7.094-65.409 11.905-21.151 5.178-41.976 11.783-63.126 18.674-21.396 7.054-43.28 15.901-68.833 27.807-20.621 9.622-41.487 20.508-65.735 34.208-8.802 5.015-17.646 10.111-26.163 15.004-4.769 2.732-9.496 5.504-14.264 8.195-23.678 13.577-54.936 31.232-86.805 47.214-36.025 18.063-68.75 30.335-102.168 38.367v1.101c33.621-8.032 66.55-20.345 102.739-38.53 31.91-15.983 63.167-33.637 86.845-47.255 4.728-2.732 9.496-5.463 14.264-8.195 8.517-4.934 17.36-10.03 26.163-15.004 24.208-13.7 45.033-24.586 65.613-34.168 25.512-11.905 47.356-20.712 68.71-27.766 20.499-6.686 40.591-13.087 61.09-18.143l1.956-.489c19.806-4.852 41.16-8.726 65.286-11.906 13.571-1.835 27.305-3.058 39.124-4.077l7.498-.653c31.747-2.691 61.701-5.218 90.962-14.8 34.884-11.416 64.594-30.783 96.055-51.292a1814.628 1814.628 0 0120.621-13.332c8.599-5.423 15.201-9.459 21.477-13.047 21.192-12.069 39.735-20.06 58.4-25.238 14.467-3.996 28.772-6.238 43.687-6.769 36.882-1.386 76.168 7.992 123.686 29.438 5.747 2.61 11.534 5.3 17.117 7.91l.652.285c24.941 11.661 49.923 18.959 76.372 22.221 28.201 3.425 61.29 2.161 101.19-3.914 68.83-10.478 140.8-31.721 204.3-50.435 29.22-8.603 56.81-16.758 82.68-23.485 21.44-5.545 46.71-12.11 71.73-19 43.2-12.028 77.51-22.955 107.96-34.371 53.87-20.101 102.9-44.564 145.77-72.656 5.67-3.711 11.29-7.543 16.75-11.335 16.87-11.865 33.74-25.483 50.17-40.569 16.67-15.33 31.58-31.476 44.38-48.07 13.94-18.062 25.02-36.573 33.01-55.043 13.28-31.028 18.42-60.017 15.48-88.598z" fill="#B9B9B9"/><path opacity=".6" d="M1789.13 194.201c-1.43-8.888-3.55-15.779-6.4-20.468-7.58-12.476-20.91-20.101-33.83-27.521-6.52-3.751-12.67-7.258-18.09-11.376-1.92-1.467-4.04-2.976-6.2-4.525-3.99-2.895-8.15-5.872-12.1-9.093a550.109 550.109 0 01-10.27-8.562c-1.63-1.427-3.3-2.772-4.89-4.077-4.93-4.077-9.54-7.91-13.16-12.232-2.12-2.568-3.83-4.81-5.18-7.38-.61-1.182-1.26-2.364-1.95-3.588-4-7.257-8.52-15.493-9.5-26.257-1.06-11.335-.86-23.077.65-34.901 4.81-38.775 22.99-79.058 51.23-113.388 5.38-6.523 11.17-12.925 17.24-19.122h-1.55c-5.83 5.993-11.41 12.15-16.63 18.47-28.36 34.493-46.62 74.94-51.47 113.918-1.51 11.905-1.71 23.688-.65 35.105 1.02 10.927 5.58 19.285 9.62 26.624.65 1.223 1.3 2.406 1.95 3.588 1.39 2.65 3.14 4.933 5.3 7.543 3.67 4.403 8.35 8.277 13.29 12.395 1.59 1.304 3.22 2.65 4.89 4.077 3.38 2.895 6.84 5.749 10.31 8.603 3.99 3.262 8.15 6.238 12.18 9.133 2.16 1.549 4.24 3.058 6.16 4.526 5.5 4.158 11.69 7.665 18.21 11.457 12.8 7.339 26 14.922 33.42 27.113 2.73 4.526 4.93 11.457 6.28 20.101 1.42 8.97 1.38 17.451 1.22 21.691-.98 26.298-9.78 52.596-26.98 80.444-9.7 15.697-21.97 30.987-37.53 46.766-13.74 13.903-28.86 27.358-46.26 41.057-17.93 14.148-34.19 26.054-49.68 36.328-5.29 3.507-10.76 7.054-16.18 10.52-43.48 27.603-89.94 51.495-138.07 70.944-28.73 11.66-60.07 22.669-101.72 35.635-19.6 6.034-41.12 12.476-67.65 20.182-19.97 5.871-40.83 12.435-62.92 19.407-64.96 20.427-138.64 43.627-209.72 55.084-39.203 6.32-69.768 7.42-96.217 3.466-23.8-3.629-46.418-11.213-71.278-23.852-5.827-2.936-11.125-5.586-16.668-8.277-41.894-20.223-81.832-29.723-118.632-28.214-14.305.611-28.079 2.731-42.058 6.441-18.135 4.852-36.107 12.232-56.565 23.2-6.725 3.588-13.204 7.38-20.907 11.946-5.991 3.547-11.941 7.135-17.85 10.683-31.584 19.081-61.415 37.102-95.403 47.459-24.86 7.583-50.045 9.703-76.698 11.987-5.379.448-10.84.897-16.342 1.427-10.188.938-23.637 2.324-37.33 4.607-20.458 3.343-40.672 7.584-61.945 12.966-10.474 2.65-21.069 5.585-31.258 8.399-9.577 2.65-19.521 5.382-29.383 7.91-25.756 6.605-49.393 14.637-67.121 20.875-21.11 7.421-42.342 15.86-64.92 25.768-9.169 4.037-18.257 8.114-27.1 12.069a2051.222 2051.222 0 00-13.082 5.871c-25.39 11.335-55.425 24.586-85.827 37.143-38.715 15.942-72.174 26.013-108.404 32.578a1716.43 1716.43 0 01-10.351 1.834v1.06c3.586-.611 7.132-1.263 10.596-1.875 36.352-6.605 69.851-16.676 108.648-32.659 30.443-12.558 60.478-25.809 85.867-37.143 4.361-1.957 8.722-3.874 13.082-5.872a5079.268 5079.268 0 0127.06-12.068c22.578-9.908 43.77-18.348 64.839-25.727 17.687-6.239 41.324-14.23 67.039-20.835 9.903-2.528 19.806-5.26 29.424-7.91 10.188-2.813 20.743-5.708 31.258-8.399 21.191-5.382 41.446-9.622 61.863-12.966 13.653-2.283 27.06-3.628 37.249-4.607 5.501-.53 10.922-.979 16.301-1.427 26.734-2.242 52.001-4.403 76.942-12.028 34.152-10.397 64.024-28.459 95.689-47.581 5.909-3.547 11.818-7.135 17.809-10.683 7.662-4.566 14.182-8.317 20.866-11.905 20.377-10.927 38.267-18.307 56.321-23.118 13.856-3.669 27.549-5.79 41.772-6.401 36.597-1.509 76.29 7.95 118.022 28.092 5.542 2.691 10.799 5.341 16.668 8.277 24.981 12.721 47.763 20.304 71.685 23.974 26.571 3.955 57.258 2.854 96.629-3.466 71.19-11.457 144.87-34.656 209.92-55.124 22.09-6.931 42.95-13.496 62.88-19.408 26.57-7.746 48.09-14.148 67.69-20.182 41.65-12.966 73.07-23.974 101.8-35.676a861.274 861.274 0 00138.28-71.066 804.69 804.69 0 0016.22-10.56c15.53-10.315 31.79-22.221 49.76-36.41 17.44-13.74 32.6-27.236 46.38-41.18 15.6-15.819 27.95-31.19 37.69-46.969 17.28-27.97 26.17-54.472 27.14-80.933-.04-4.118 0-12.64-1.42-21.732z" fill="#B9B9B9"/><path opacity=".6" d="M1753.26 189.351c-.32-8.114-1.54-15.127-3.5-20.223-5.05-13.129-15.53-22.71-25.59-31.966-4.65-4.24-9.42-8.643-13.49-13.251-1.31-1.467-2.73-3.058-4.16-4.648-3.3-3.628-6.72-7.42-9.94-11.334l-.37-.449c-2.77-3.343-5.34-6.483-7.83-9.215-3.34-3.669-6.68-6.686-9.94-9.581-2.57-2.283-4.97-4.444-7.13-6.727-1.92-2.039-3.91-4.24-5.42-6.89a133.85 133.85 0 00-2.81-4.69c-4.08-6.523-8.68-13.944-9.46-24.463-.77-10.642-.36-22.343 1.22-33.8 5.02-37.266 22.13-76.53 48.26-110.575 2.52-3.303 5.17-6.524 7.86-9.745h-1.46c-2.53 3.018-4.98 6.035-7.34 9.133-26.2 34.208-43.4 73.635-48.46 111.064-1.59 11.539-1.99 23.281-1.22 34.004.78 10.764 5.46 18.307 9.58 24.912 1.02 1.631 1.95 3.14 2.81 4.648 1.55 2.732 3.59 5.015 5.54 7.095 2.2 2.324 4.65 4.485 7.22 6.809 3.22 2.895 6.56 5.87 9.86 9.5 2.44 2.691 5.05 5.83 7.78 9.173l.37.449c3.22 3.914 6.64 7.706 9.94 11.375 1.47 1.591 2.86 3.181 4.16 4.648 4.12 4.649 8.92 9.052 13.57 13.333 10.03 9.174 20.34 18.674 25.35 31.599 1.96 5.015 3.14 11.905 3.46 19.896.29 6.769-.24 14.189-1.46 20.876-4.53 24.749-16.75 47.826-38.39 72.697-11.25 12.884-24.66 25.197-42.22 38.734-13.7 10.519-29.47 21.731-48.3 34.208l-5.29 3.547c-14.27 9.459-28.98 19.244-44.06 28.663-5.22 3.262-10.43 6.523-15.69 9.744-46.34 28.378-89.05 51.088-130.61 69.395-26.57 11.783-56.04 23.159-95.53 36.94a4205.54 4205.54 0 01-63.66 21.364c-12.79 4.241-25.79 8.644-39.61 13.333-67.49 22.914-143.98 48.886-218.84 61.688-37.985 6.483-67.083 7.421-91.576 3.018-26.897-4.934-47.926-15.208-66.591-25.565a963.295 963.295 0 00-15.567-8.399c-36.597-18.959-76.698-28.5-112.969-26.828-13.611.612-26.734 2.609-40.101 6.034-17.116 4.404-34.966 11.294-54.487 21.08-6.847 3.425-13.53 7.053-20.295 10.764a4014.685 4014.685 0 00-13.978 7.706c-32.155 17.817-62.516 34.656-96.097 44.074-21.232 5.953-42.383 7.625-64.757 9.419-7.498.611-15.241 1.223-23.107 1.998-13.448 1.345-24.696 2.976-35.414 5.137-19.114 3.792-37.208 8.358-58.522 14.026l-5.176 1.386c-17.116 4.566-34.762 9.255-52.979 12.558-23.882 4.362-46.459 9.459-65.409 13.903-22.007 5.178-42.995 10.846-64.146 17.328a3114.368 3114.368 0 00-31.828 10.03l-8.11 2.569c-11.86 3.751-23.515 7.502-35.048 11.172-16.912 5.422-33.54 10.682-49.841 15.86-26.938 8.522-60.519 18.103-105.144 24.627-6.398.937-12.918 1.916-19.48 2.935-3.505.53-7.091 1.101-10.677 1.631v1.06c3.668-.571 7.295-1.101 10.881-1.671a2902.18 2902.18 0 0119.48-2.936c44.747-6.524 78.369-16.146 105.347-24.667 16.302-5.178 32.929-10.479 49.842-15.861 11.533-3.669 23.229-7.42 35.047-11.171l8.11-2.569a3393.66 3393.66 0 0131.788-10.03c21.11-6.524 42.057-12.191 64.023-17.328 18.91-4.444 41.487-9.541 65.328-13.904 18.257-3.343 35.944-8.032 53.061-12.598l5.175-1.387c21.314-5.667 39.368-10.193 58.441-14.025 10.677-2.12 21.884-3.751 35.292-5.097 7.865-.774 15.608-1.386 23.066-1.998 22.455-1.794 43.688-3.506 65.002-9.459 33.703-9.459 64.145-26.339 96.341-44.197 4.645-2.569 9.291-5.137 13.978-7.706 6.765-3.71 13.408-7.339 20.254-10.764 19.44-9.744 37.167-16.594 54.202-20.957.53-.122 1.019-.244 1.549-.408 12.756-3.18 25.308-5.015 38.308-5.585 36.067-1.631 75.923 7.828 112.316 26.705 5.42 2.814 10.677 5.709 15.568 8.4 18.787 10.397 39.857 20.712 66.958 25.686 24.655 4.444 53.916 3.466 92.022-3.017 74.94-12.802 151.52-38.815 219.05-61.729 13.81-4.689 26.81-9.093 39.61-13.333a4242.84 4242.84 0 0063.66-21.365c39.53-13.781 69.03-25.197 95.64-36.98 41.61-18.348 84.4-41.058 130.78-69.476 5.26-3.221 10.48-6.483 15.69-9.745 15.08-9.418 29.79-19.203 44.06-28.703l5.33-3.548c18.83-12.517 34.64-23.729 48.34-34.289 17.64-13.577 31.09-25.931 42.38-38.897 21.8-25.034 34.07-48.274 38.64-73.186 1.26-6.687 1.79-14.189 1.54-20.998z" fill="#B9B9B9"/><path opacity=".6" d="M1716.75 164.439c-2.61-14.107-10.23-25.972-17.61-37.47-2.93-4.607-5.99-9.336-8.64-14.107l-.52-.938c-2.98-5.341-6.32-11.416-9.38-17.369-2.04-3.995-4.07-7.787-6.07-10.763-3.87-5.709-8.23-9.46-12.43-13.088-1.26-1.101-2.53-2.161-3.71-3.262-2.04-1.876-4.11-3.914-5.62-6.401-.98-1.59-2.12-3.221-3.34-4.934-4.32-6.034-9.17-12.843-9.74-23.526-.53-10.03.08-21.364 1.79-32.74 5.22-35.798 21.31-74.042 45.23-107.802.09-.122.17-.244.29-.367h-1.39c-23.96 33.8-40.02 72.167-45.27 108.006-1.71 11.457-2.33 22.833-1.8 32.944.57 10.968 5.75 18.225 9.91 24.056 1.22 1.712 2.36 3.303 3.3 4.852 1.59 2.61 3.75 4.689 5.83 6.605 1.22 1.1 2.44 2.202 3.75 3.303 4.15 3.547 8.43 7.257 12.22 12.843 1.96 2.895 3.95 6.686 5.99 10.641 3.06 5.953 6.4 12.028 9.38 17.369l.53.979c2.64 4.811 5.7 9.541 8.68 14.148 7.33 11.416 14.87 23.199 17.48 37.103 1.06 5.586 1.26 12.435.61 19.734-.61 6.768-2.04 13.699-4.2 20.019-7.86 23.24-23.68 43.871-49.8 64.991-12.43 10.03-26.9 19.53-46.9 30.701-10.27 5.749-21.03 11.539-32.4 17.696-5.83 3.139-11.78 6.36-17.94 9.703-14.67 7.951-29.66 16.758-44.17 25.239l-4.85 2.854c-5.05 2.976-10.11 5.952-15.2 8.929-43.32 25.523-82.49 48.274-123.2 67.845-31.38 15.167-64.27 28.418-89.37 38.285a4046.164 4046.164 0 01-59.62 22.547l-10.68 3.955c-71.52 26.665-152.62 56.878-233.599 71.596-36.596 6.646-64.227 7.462-86.927 2.569-24.411-5.3-43.198-15.942-61.904-27.277-4.238-2.528-9.251-5.545-14.508-8.48-32.195-18.022-71.318-27.318-107.304-25.483-12.878.652-25.348 2.487-38.145 5.627-.244.081-.529.122-.774.203-16.179 3.996-33.051 10.153-51.594 18.715-6.765 3.139-13.326 6.442-19.683 9.622l-8.273 4.159c-33.377 16.839-64.92 32.781-98.623 41.302-18.095 4.608-35.782 5.79-54.569 7.095-9.088.611-18.461 1.264-28.16 2.324-12.593 1.386-23.271 3.18-33.54 5.626-13.531 3.181-26.775 7.013-39.572 10.683-5.176 1.467-10.31 2.976-15.486 4.403-19.929 5.545-37.004 9.622-55.628 11.579-22.822 2.406-44.829 4.852-63.657 6.972-23.27 2.61-44.014 5.546-63.331 8.93-14.019 2.446-27.834 5.055-39.693 7.298-26.816 5.096-54.284 10.641-83.952 16.961-27.998 5.953-59.704 12.11-101.924 16.676-13.978 1.509-28.201 3.67-40.264 5.586l-9.7 1.631v1.06l9.944-1.55c12.063-1.916 26.245-4.077 40.183-5.585 42.261-4.567 74.008-10.723 102.046-16.676 29.669-6.32 57.096-11.865 83.911-16.961 11.859-2.243 25.675-4.852 39.653-7.299 19.317-3.384 40.02-6.279 63.249-8.888 18.828-2.12 40.835-4.567 63.657-6.972 18.706-1.957 35.863-6.075 55.832-11.62 5.176-1.427 10.351-2.936 15.486-4.404 12.797-3.669 26.001-7.461 39.49-10.641 10.229-2.447 20.825-4.241 33.377-5.627 9.659-1.06 19.032-1.712 28.12-2.324 18.543-1.305 36.107-2.487 53.998-6.931.285-.082.53-.123.815-.204 33.825-8.562 65.45-24.504 98.908-41.384l8.273-4.159c6.358-3.18 12.919-6.483 19.643-9.622 18.461-8.562 35.252-14.637 51.349-18.633.245-.082.53-.122.775-.204 12.715-3.099 25.144-4.933 37.941-5.586 35.741-1.794 74.619 7.421 106.611 25.32a525.544 525.544 0 0114.467 8.481c18.787 11.416 37.697 22.057 62.271 27.439 22.863 4.893 50.656 4.078 87.457-2.568 81.094-14.76 162.234-44.972 233.804-71.678l10.67-3.955a4016.189 4016.189 0 0059.63-22.547c25.14-9.867 58.07-23.118 89.45-38.285 40.75-19.612 79.92-42.363 123.28-67.886 5.05-2.977 10.11-5.953 15.2-8.929l4.85-2.854c14.51-8.481 29.5-17.247 44.14-25.198 6.11-3.343 12.1-6.564 17.93-9.703 11.37-6.116 22.13-11.947 32.44-17.696 20.09-11.212 34.6-20.712 47.07-30.824 26.28-21.242 42.22-42.036 50.16-65.48 2.16-6.401 3.63-13.373 4.24-20.264.61-7.461.41-14.352-.65-20.06z" fill="#B9B9B9"/><path opacity=".6" d="M1674.2 114.207c-1.3-4.036-2.64-8.236-3.83-12.313-1.3-4.485-2.77-9.867-4.15-15.086-.53-1.875-1.02-3.75-1.51-5.585-1.39-5.056-2.57-8.97-3.91-11.824-3.51-7.38-8.64-11.294-13.13-14.76-.69-.53-1.38-1.06-2.03-1.59-2.12-1.672-4.32-3.506-5.87-5.871-1.02-1.55-2.28-3.099-3.67-4.77-4.4-5.342-9.86-11.988-10.23-22.955-.28-9.337.53-20.264 2.32-31.68 4.98-31.314 17.89-65.032 36.64-95.979h-1.34c-18.63 30.947-31.51 64.584-36.44 95.815-1.83 11.457-2.65 22.466-2.36 31.844.37 11.294 5.95 18.103 10.43 23.566 1.35 1.63 2.61 3.18 3.59 4.689 1.63 2.528 3.91 4.403 6.07 6.156.65.53 1.35 1.06 2.04 1.59 4.64 3.548 9.41 7.258 12.8 14.393 1.34 2.773 2.48 6.687 3.87 11.661.49 1.835 1.02 3.71 1.5 5.586 1.39 5.219 2.86 10.6 4.2 15.086 1.22 4.118 2.57 8.276 3.83 12.354 4.65 14.515 9.46 29.478 9.54 45.298 0 6.279-.78 13.006-2.24 19.53a86.067 86.067 0 01-6.89 19.203c-11.17 22.221-30.65 40.447-61.21 57.286-16.67 9.173-34.64 16.308-51.59 22.669l-3.71 1.386c-15.49 5.79-31.46 11.783-48.66 19.122-14.8 6.361-30.28 13.945-48.7 23.934-4.69 2.528-9.5 5.219-14.71 8.113-15.33 8.644-30.81 17.736-45.73 26.502-22.94 13.496-46.66 27.44-70.01 39.794-28.49 15.127-58.08 28.5-83.22 39.59-19.81 8.685-37.98 16.431-55.59 23.73-73.32 30.579-151.89 60.995-230.052 76.122-22.089 4.281-54.691 9.133-82.281 2.161-22.333-5.709-38.797-16.717-56.24-28.337l-.978-.653c-3.586-2.364-8.313-5.504-13.407-8.603-28.569-17.369-65.654-26.175-101.639-24.137-12.145.693-23.963 2.406-36.23 5.219-15.69 3.629-32.154 9.092-50.249 16.758-6.642 2.813-13.326 5.871-19.072 8.48l-.815.367c-35.333 16.024-68.67 31.109-102.902 38.775-15.364 3.424-30.199 4.199-45.889 5.055-10.147.53-20.621 1.101-31.706 2.406-11.451 1.386-21.803 3.384-31.665 6.157-9.781 2.731-19.317 5.83-28.527 8.847-7.54 2.446-15.324 5.015-23.067 7.258-14.712 4.322-32.521 8.766-53.142 9.214-20.906.53-40.386.326-61.904.041-24.982-.326-44.87-.204-62.516.489-12.226.449-25.145 1.101-39.449 1.998-25.919 1.59-52.286 3.792-83.014 6.85l-5.38.53c-27.02 2.732-54.976 5.545-93.325 8.154-11.655.816-24.533 2.406-38.267 4.811A547.696 547.696 0 00-133 615.095v1.101c10.27-2.446 20.947-4.607 31.788-6.523 13.693-2.406 26.53-3.996 38.145-4.811 38.349-2.61 66.305-5.464 93.365-8.155l5.38-.53c30.687-3.099 57.055-5.26 82.933-6.85 14.304-.897 27.182-1.549 39.408-1.997 17.646-.653 37.493-.816 62.475-.49 21.518.286 41.039.49 61.945-.041 20.743-.448 38.675-4.933 53.468-9.296 7.744-2.283 15.527-4.811 23.067-7.257 9.21-3.017 18.746-6.116 28.486-8.848 9.74-2.772 20.051-4.77 31.462-6.115 11.044-1.305 21.518-1.876 31.624-2.406 15.772-.856 30.647-1.631 46.092-5.097 34.355-7.665 67.773-22.791 103.147-38.856l.815-.367c5.746-2.609 12.389-5.667 19.032-8.48 18.013-7.625 34.396-13.088 50.045-16.676 12.185-2.813 23.963-4.485 36.026-5.178 35.781-1.998 72.541 6.727 100.946 23.933 5.053 3.099 9.78 6.198 13.367 8.562l.978.653c17.524 11.701 34.07 22.751 56.606 28.5 27.875 7.053 60.641 2.16 82.852-2.121 78.208-15.208 156.938-45.583 230.298-76.203 17.6-7.298 35.78-15.045 55.59-23.73 25.18-11.09 54.77-24.463 83.3-39.63 23.35-12.395 47.11-26.339 70.05-39.835 14.92-8.766 30.36-17.858 45.73-26.502 5.17-2.935 9.98-5.586 14.67-8.114 18.42-9.948 33.86-17.532 48.62-23.892 17.15-7.298 33.13-13.292 48.61-19.082l3.71-1.386c17-6.36 35.01-13.536 51.76-22.751 30.81-16.961 50.41-35.309 61.66-57.733a85.957 85.957 0 006.97-19.408c1.51-6.605 2.28-13.414 2.28-19.775 0-15.86-4.81-30.946-9.5-45.502z" fill="#B9B9B9"/><path opacity=".6" d="M1650.49 94.392l-.29-3.506c-.33-3.67-.57-7.828-.81-12.19-.21-3.63-.41-7.34-.7-10.806-.45-5.585-.89-9.948-1.79-12.924-2.57-8.685-8.07-12.314-12.92-15.535-2.85-1.875-5.5-3.67-7.33-6.238-1.02-1.427-2.41-2.895-3.88-4.444-4.76-5.015-10.71-11.253-10.8-22.588-.08-8.644.9-18.96 2.9-30.58 4.64-26.99 14.99-56.265 29.14-83.827h-1.31c-14.06 27.48-24.33 56.714-28.97 83.665-2.04 11.701-3.02 22.058-2.94 30.742.12 11.743 6.48 18.388 11.09 23.281 1.46 1.509 2.81 2.936 3.79 4.322 1.95 2.732 4.72 4.566 7.62 6.523 4.93 3.262 10.02 6.646 12.51 14.964.86 2.895 1.3 7.176 1.75 12.721.25 3.466.49 7.217.69 10.805.25 4.403.49 8.521.82 12.231l.28 3.507c2.25 25.727 4.73 54.839-4.84 79.873-11.66 30.457-38.56 52.678-82.2 67.926-18.26 6.361-37.82 10.724-56.28 14.638-15.45 3.262-34.69 7.339-54.41 13.618-19.52 6.116-39.98 15.004-62.56 27.113-23.27 12.477-45.93 26.543-67.89 40.161-13.29 8.236-27.02 16.757-40.39 24.627-25.71 15.085-52.2 28.581-77.06 40.894-78.86 39.142-172.27 81.83-267.425 101.605-21.111 4.362-52.165 9.296-77.676 1.712-19.032-5.667-32.562-15.779-46.867-26.502-5.705-4.24-11.573-8.643-17.972-12.884-25.185-16.716-60.192-25.034-96.014-22.791-25.39 1.59-51.594 7.746-82.444 19.407-6.358 2.446-12.634 4.974-18.462 7.339-32.276 13.088-66.672 26.421-100.579 32.781-13 2.446-25.389 2.854-38.471 3.262-10.759.326-21.925.693-33.947 2.242-10.596 1.387-20.336 3.588-29.791 6.687-7.743 2.528-15.282 5.382-22.577 8.114-24.208 9.092-47.03 17.695-76.168 15.942-21.518-1.305-42.058-4.281-60.152-6.891-19.195-2.772-41.528-5.912-61.741-7.95-48.741-4.975-90.636-5.872-121.241-6.524-26.245-.571-53.02-.367-95.445.734-22.862.611-47.6 5.26-71.481 13.455-6.276 2.161-12.307 4.648-18.216 7.094v1.142c6.031-2.528 12.226-5.097 18.624-7.298 23.759-8.196 48.333-12.803 71.114-13.415 42.424-1.1 69.159-1.304 95.404-.733 30.565.652 72.459 1.549 121.159 6.523 20.214 2.08 42.506 5.178 61.701 7.951 18.135 2.609 38.675 5.586 60.274 6.931 29.383 1.794 52.327-6.85 76.698-16.023 7.294-2.732 14.834-5.586 22.536-8.114 9.373-3.099 19.032-5.26 29.546-6.646 11.982-1.549 23.107-1.876 33.825-2.243 13.164-.407 25.553-.815 38.675-3.261 34.029-6.402 68.466-19.734 100.824-32.863 5.828-2.365 12.063-4.893 18.42-7.298 30.728-11.62 56.81-17.777 82.078-19.326 35.536-2.243 70.258 5.993 95.24 22.588 6.358 4.24 12.226 8.603 17.891 12.843 14.386 10.764 27.997 20.957 47.233 26.706 25.797 7.665 57.014 2.732 78.287-1.672 95.28-19.815 188.77-62.504 267.71-101.686 24.86-12.354 51.39-25.85 77.14-40.935 13.41-7.87 27.15-16.391 40.43-24.627 21.93-13.577 44.59-27.644 67.81-40.12 22.5-12.069 42.92-20.916 62.36-27.032 19.64-6.238 38.88-10.315 54.28-13.577 18.5-3.914 38.11-8.277 56.44-14.678 43.98-15.371 71.12-37.796 82.9-68.579 9.61-25.279 7.09-54.554 4.85-80.363z" fill="#B9B9B9"/><path opacity=".6" d="M1615.03 15.946c-2.24-1.916-4.36-3.75-5.62-6.36-.74-1.509-1.88-3.099-3.06-4.77-3.46-4.852-7.74-10.887-7.13-21.039.45-7.828 1.91-17.043 4.56-29.07 4.61-20.51 11.86-41.955 21.15-62.953h-1.26c-9.25 20.916-16.46 42.322-21.07 62.748-2.65 12.07-4.12 21.365-4.56 29.234-.62 10.52 3.79 16.717 7.33 21.691 1.22 1.713 2.28 3.18 2.98 4.648 1.34 2.773 3.54 4.689 5.91 6.687 3.7 3.18 7.58 6.483 8.8 13.903.45 2.732.36 6.769.24 11.743-.12 4.24-.4 8.806-.69 13.21-.16 2.772-.33 5.423-.45 7.828l-.2 4.281c-1.1 23.811-2.24 48.438-12.11 71.882-12.63 30.09-37.53 53.575-74.04 69.721-14.92 6.605-32.73 11.579-56.08 15.615-5.63.979-11.41 1.917-17.08 2.814-10.06 1.631-20.45 3.302-30.85 5.341-2.32.448-4.64.897-7.01 1.386-21.92 4.485-42.67 10.723-63.29 19.082-9.37 3.751-18.74 7.95-27.87 12.435-14.43 7.095-29.55 15.738-47.6 27.318-9.29 5.952-18.54 12.068-27.51 18.021l-6.93 4.567c-18.58 12.231-37.04 23.811-54.85 34.452-5.75 3.425-11.66 6.891-17.36 10.234l-1.39.815c-95.81 56.022-184.774 93.532-264.243 111.39-16.138 3.629-39.979 8.033-60.885 4.241a85.862 85.862 0 01-16.709-4.811c-13.938-5.708-24.289-14.067-35.211-22.874-1.671-1.345-3.382-2.731-5.094-4.077-7.947-6.36-14.916-11.253-21.966-15.493-15.283-9.174-34.518-15.045-55.669-16.921-13.367-1.182-27.223-.856-41.202 1.06-13.571 1.794-27.712 4.811-44.543 9.459-11.452 3.181-23.922 6.972-38.145 11.58l-3.138 1.019c-5.298 1.712-10.555 3.425-15.772 5.097-9.454 3.017-19.154 5.789-29.627 8.521-20.336 5.26-39.205 8.154-59.133 11.172-3.994.611-8.029 1.223-12.063 1.834-5.42.857-10.881 1.591-16.179 2.324l-2.283.327a1503.32 1503.32 0 01-16.464 2.079c-11.574 1.427-23.596 2.895-36.637 5.178-9.455 1.672-19.317 3.71-30.076 6.198-3.912.937-7.784 1.875-11.574 2.772-29.179 7.094-54.365 13.21-86.234 8.073-18.094-2.936-36.719-6.768-55.424-11.416-9.496-2.365-18.543-4.73-27.264-7.013-10.474-2.732-20.377-5.341-29.913-7.625a1268.949 1268.949 0 00-40.672-9.01c-23.637-4.811-46.5-8.889-69.933-12.436-9.088-1.386-19.113-2.528-32.44-3.751-19.48-1.753-39.734-1.672-61.904.367-13.04 1.182-25.919 4.607-39.53 8.236-3.913 1.019-7.866 2.079-11.9 3.099-6.276 1.59-12.96 3.302-19.643 5.178-6.602 1.875-13.123 3.996-19.399 6.075v1.142c.041 0 .082-.041.122-.041 6.358-2.08 12.96-4.281 19.643-6.157 6.643-1.875 13.327-3.588 19.603-5.178 4.034-1.019 7.987-2.079 11.9-3.099 13.57-3.628 26.408-7.012 39.327-8.195 22.088-1.998 42.26-2.12 61.66-.326 13.326 1.223 23.31 2.365 32.358 3.751 23.392 3.547 46.255 7.624 69.851 12.436a1266.522 1266.522 0 0140.631 9.01c9.495 2.284 19.398 4.852 29.872 7.584 8.762 2.283 17.768 4.648 27.264 7.013 18.706 4.648 37.411 8.48 55.506 11.416 32.113 5.178 57.421-.979 86.723-8.073a606.53 606.53 0 0111.574-2.772c10.718-2.488 20.539-4.526 29.994-6.198 13.041-2.283 25.023-3.751 36.597-5.178a1515.59 1515.59 0 0016.505-2.079l2.282-.327c5.298-.733 10.759-1.467 16.179-2.323a662.58 662.58 0 0112.063-1.835c19.969-3.017 38.838-5.912 59.255-11.172 10.515-2.732 20.214-5.504 29.709-8.521 5.258-1.672 10.515-3.344 15.813-5.097l3.138-1.019c14.182-4.607 26.612-8.399 38.063-11.58 16.791-4.648 30.85-7.624 44.381-9.459 13.896-1.875 27.63-2.242 40.916-1.019 20.947 1.876 40.02 7.624 55.139 16.717 7.01 4.199 13.938 9.092 21.803 15.412 1.712 1.386 3.423 2.731 5.094 4.077 11.004 8.888 21.436 17.287 35.496 23.077 5.339 2.202 11.045 3.833 16.954 4.893 21.151 3.832 45.154-.612 61.415-4.281 79.673-17.94 168.679-55.451 264.609-111.554l1.39-.815c5.7-3.343 11.61-6.809 17.36-10.234 17.81-10.641 36.27-22.221 54.89-34.452l6.93-4.567c8.97-5.912 18.22-12.069 27.51-18.021 18.01-11.539 33.09-20.183 47.48-27.236a401.962 401.962 0 0127.79-12.395c20.58-8.358 41.2-14.556 63.09-19.041 2.36-.489 4.68-.937 7.01-1.386 10.39-1.998 20.78-3.71 30.81-5.341 5.62-.897 11.45-1.876 17.07-2.813 23.48-4.078 41.37-9.093 56.36-15.739 36.8-16.309 61.87-39.956 74.62-70.291 9.95-23.607 11.09-48.315 12.19-72.208l.2-4.281c.12-2.406.29-5.056.45-7.828.29-4.404.57-8.97.69-13.251.17-5.015.25-9.093-.24-11.947-1.26-7.787-5.42-11.334-9.13-14.515z" fill="#B9B9B9"/><path opacity=".6" d="M1592.17-13.941c-.41-1.672-1.23-3.425-2.08-5.3-2.16-4.649-4.81-10.438-3.59-19.367 1.22-8.97 3.83-18.96 6.2-27.563 3.79-13.78 8.64-27.97 14.22-42.077h-1.22c-5.55 14.026-10.35 28.133-14.1 41.833-2.37 8.644-4.98 18.674-6.2 27.684-1.26 9.215 1.47 15.168 3.67 19.897.85 1.876 1.63 3.547 2.04 5.137.69 2.773 2.28 4.77 3.99 6.85 2.53 3.14 5.14 6.36 5.22 12.844.04 2.487-.53 5.952-1.1 9.622l-.21 1.182c-.81 5.26-2.03 11.009-3.09 16.024l-1.35 6.523c-4.4 21.161-8.96 43.015-19.36 65.44-14.46 31.435-36.63 55.491-65.85 71.555-14.68 8.033-32.97 13.496-55.88 16.635-12.51 1.713-25.63 2.855-38.35 3.955-3.34.286-6.72.571-10.06.897l-3.22.286c-1.26.122-2.53.204-3.79.326-24.62 2.283-44.95 5.79-64.03 11.049-10.35 2.854-19.8 6.035-28.89 9.745-15.49 6.238-31.46 14.841-48.86 26.298-12.07 7.951-23.88 16.554-33.83 23.893l-4.03 2.976c-15.77 11.62-32.12 23.607-48.21 34.86-5.46 3.792-11.05 7.625-16.51 11.335l-1.34.938c-59.87 40.691-152.95 94.388-258.012 120.441l-3.057.734c-16.668 4.037-41.161 8.807-61.619 3.425a71.663 71.663 0 01-15.894-6.279c-10.473-5.667-18.461-13.006-26.897-20.794-3.342-3.058-6.806-6.238-10.433-9.337-7.131-6.075-14.467-11.13-22.373-15.452-19.888-10.764-41.935-13.129-56.892-13.251-12.919-.082-26.652 1.345-40.835 4.322-14.915 3.058-29.423 7.257-44.217 11.62-13.897 4.158-26.53 7.787-38.675 11.09-6.48 1.753-13 3.384-19.358 4.852-9.577 2.242-19.439 4.036-30.116 5.585-12.715 1.794-24.982 2.202-36.882 2.528-11.044.327-22.455.694-34.11 2.161-7.092.897-13.042 1.835-18.665 2.936-12.593 2.446-24.493 5.137-37.086 8.032-4.85 1.101-9.822 2.243-15.038 3.384-7.825 1.753-18.298 3.955-30.32 5.708-37.534 5.464-64.105 6.687-96.871-2.324-21.232-5.871-36.841-10.764-50.656-15.901-12.756-4.73-24.493-9.622-35.863-14.352-5.828-2.405-11.289-4.729-16.75-6.89-12.796-5.138-25.145-9.99-36.719-14.352-23.392-8.848-43.076-15.983-63.29-22.017-8.802-2.65-18.38-4.852-31.094-7.217-19.44-3.588-40.346-3.71-62.149-.367-9.74 1.509-18.869 4.689-28.486 8.073-7.01 2.446-14.223 4.974-21.803 6.85-.123.041-.245.041-.367.081a899.04 899.04 0 01-14.631 3.384l-5.379 1.224c-5.298 1.182-10.637 2.527-15.772 3.791-1.589.408-3.178.775-4.768 1.183v1.101c1.712-.408 3.423-.816 5.094-1.224 5.135-1.263 10.474-2.568 15.772-3.791l5.379-1.223c5.094-1.142 9.903-2.202 14.63-3.385.123-.04.245-.04.367-.081 7.662-1.916 14.916-4.444 21.926-6.891 9.577-3.343 18.665-6.523 28.283-8.032 21.68-3.343 42.424-3.262 61.7.326 12.674 2.365 22.21 4.567 30.973 7.176 20.172 6.035 39.856 13.17 63.208 21.977 11.533 4.362 23.881 9.214 36.678 14.351 5.42 2.202 10.922 4.485 16.749 6.891 11.371 4.73 23.108 9.622 35.904 14.393 13.856 5.137 29.506 10.03 50.779 15.901 32.969 9.133 59.663 7.869 97.359 2.365 12.063-1.754 22.618-3.996 30.443-5.749 5.176-1.142 10.188-2.284 15.038-3.384 12.552-2.854 24.452-5.545 37.045-7.992 5.583-1.101 11.492-1.998 18.583-2.935 11.615-1.509 22.985-1.835 33.989-2.161 11.94-.367 24.248-.734 37.044-2.569 10.718-1.549 20.621-3.343 30.239-5.586a517.54 517.54 0 0019.399-4.852c12.144-3.302 24.819-6.931 38.715-11.09 14.753-4.362 29.261-8.562 44.095-11.62 14.06-2.936 27.713-4.363 40.55-4.281 14.834.082 36.637 2.446 56.321 13.088 7.865 4.24 15.12 9.255 22.17 15.29 3.627 3.057 7.05 6.238 10.392 9.296 8.517 7.828 16.546 15.208 27.142 20.957 5.216 2.813 10.514 4.933 16.179 6.401 20.743 5.463 45.48.652 62.271-3.425l3.056-.734c105.225-26.094 198.465-79.914 258.415-120.645l1.35-.938c5.42-3.71 11.04-7.502 16.5-11.335 16.14-11.253 32.48-23.281 48.25-34.86l4.04-2.976c9.94-7.339 21.72-15.942 33.78-23.852 17.32-11.417 33.22-19.979 48.66-26.176 9.05-3.67 18.46-6.85 28.73-9.663 18.99-5.26 39.29-8.766 63.82-11.009 1.27-.122 2.53-.244 3.79-.326l3.22-.285c3.34-.286 6.69-.612 10.03-.897 12.71-1.101 25.84-2.284 38.39-3.955 23.1-3.18 41.53-8.644 56.32-16.758 29.46-16.145 51.76-40.405 66.34-72.044 10.44-22.507 15-44.442 19.44-65.644l1.39-6.523c1.06-5.056 2.28-10.764 3.14-16.065l.2-1.182c.61-3.873 1.14-7.217 1.1-9.785-.08-6.85-2.93-10.357-5.46-13.455-1.83-1.998-3.38-3.915-4.03-6.483z" fill="#B9B9B9"/><path opacity=".6" d="M1581.57-87.044a587.37 587.37 0 017.58-21.202h-1.22c-2.61 6.972-5.14 13.944-7.46 20.875-2.93 8.807-5.99 17.9-7.86 26.176-1.8 7.87-.61 13.414.28 17.9.45 2.16.82 4.036.86 5.87.04 2.732.94 4.812 1.91 6.972 1.35 3.1 2.73 6.28 1.88 11.825-.33 2.12-1.22 4.851-2.12 7.706l-.65 2.12c-1.84 5.83-4.36 12.15-6.36 17.002-7.66 18.633-16.34 39.019-27.92 61.77-13.98 27.44-30.64 55.287-57.7 73.349-14.06 9.378-32.77 15.29-55.71 17.614-16.83 1.672-34.15 1.712-48.87 1.549-1.5 0-3.01-.041-4.56-.081l-2.49-.041c-19.56-.367-42.34-.449-64.79 3.058-10.8 1.671-20.59 3.995-29.88 7.013-16.42 5.259-32.8 13.536-50.08 25.278-9.99 6.769-20.54 14.801-33.22 25.198-7.86 6.442-15.77 13.047-23.43 19.448-8.64 7.217-17.52 14.678-26.29 21.773-5.66 4.566-11.41 9.092-16.95 13.414-79.02 61.851-170.633 108.373-257.927 131.001-17.157 4.485-42.261 9.622-62.352 2.61-5.298-1.835-10.229-4.363-15.12-7.747-8.069-5.586-14.304-12.354-20.865-19.53-4.198-4.567-8.558-9.337-13.49-13.781-6.683-6.075-14.385-11.253-22.821-15.371-16.057-7.829-36.719-11.213-58.115-9.582-12.592.938-25.837 3.425-40.468 7.584-9.78 2.732-19.317 5.83-29.383 9.092-4.768 1.549-9.618 3.14-14.508 4.689-13.204 4.2-26.408 7.787-39.245 10.601-6.317 1.386-12.797 2.568-19.807 3.628-9.74 1.468-19.765 2.325-30.646 2.61-10.963.326-21.518-.897-31.706-2.039-12.511-1.427-25.471-2.895-39.082-1.549-6.439.652-12.512 1.672-18.502 3.139l-.326.082c-9.374 2.365-17.891 5.137-26.938 8.114-7.662 2.528-15.609 5.096-24.086 7.42-10.84 2.936-20.58 4.608-30.605 5.219-35.782 2.202-63.575-2.283-95.893-15.534-15.445-6.32-31.421-12.884-45.929-20.386-14.06-7.299-26.652-14.923-38.797-22.303a1417.01 1417.01 0 00-9.251-5.586c-5.298-3.18-10.473-6.279-15.527-9.336-5.909-3.548-11.615-7.013-17.239-10.357l-3.749-2.283c-17.85-10.723-34.722-20.875-52.898-29.356-8.517-3.996-17.972-7.38-29.75-10.682-19.52-5.505-40.508-5.831-62.393-1.06-8.802 1.916-17.035 5.667-25.022 9.336-7.662 3.507-15.568 7.095-24.208 9.256-.244.041-.489.122-.733.163-6.602 1.549-13.653 2.813-20.336 3.955l-6.643 1.141c-4.972.857-10.025 1.713-15.119 2.528v1.06c5.134-.815 10.269-1.712 15.323-2.568l6.643-1.142c6.683-1.142 13.774-2.405 20.417-3.955 9.047-2.161 17.198-5.871 25.145-9.5 8.273-3.792 16.097-7.339 24.778-9.255 21.68-4.77 42.465-4.404 61.741 1.019 11.696 3.303 21.07 6.687 29.546 10.601 18.135 8.44 34.966 18.551 52.776 29.275l3.79 2.283a4933.338 4933.338 0 0117.198 10.356c5.053 3.058 10.229 6.157 15.527 9.337 3.015 1.835 6.113 3.71 9.21 5.586 12.185 7.42 24.778 15.045 38.878 22.343 14.549 7.502 30.525 14.066 46.011 20.427 32.521 13.332 60.478 17.858 96.463 15.616 10.107-.612 19.969-2.284 30.891-5.26 8.517-2.324 16.464-4.933 24.167-7.421 9.047-2.935 17.564-5.748 26.856-8.072.122-.041.204-.041.326-.082 5.95-1.468 11.941-2.487 18.339-3.14 13.449-1.345 26.327.123 38.797 1.55 10.27 1.182 20.866 2.365 31.869 2.079 10.922-.285 20.988-1.182 30.81-2.65 7.05-1.06 13.571-2.242 19.887-3.629a442.618 442.618 0 0039.368-10.641c4.89-1.55 9.74-3.099 14.508-4.689 10.066-3.262 19.562-6.361 29.302-9.092 14.59-4.118 27.712-6.605 40.223-7.543 21.192-1.631 41.609 1.753 57.463 9.459 8.354 4.077 15.934 9.174 22.536 15.208 4.89 4.403 9.21 9.133 13.408 13.7 6.602 7.216 12.878 14.025 21.069 19.693 4.972 3.465 10.026 6.034 15.405 7.909 20.418 7.095 45.807 1.917 63.127-2.609 87.457-22.669 179.232-69.313 258.372-131.246 5.55-4.363 11.33-8.848 16.96-13.455 8.76-7.094 17.68-14.556 26.28-21.813 7.66-6.401 15.57-13.007 23.44-19.449 12.63-10.397 23.18-18.388 33.13-25.156 17.2-11.661 33.46-19.897 49.8-25.116 9.25-3.017 18.95-5.26 29.71-6.972 22.33-3.506 45.03-3.384 64.55-3.017l2.49.041c1.51.04 3.05.081 4.56.081 14.75.163 32.16.122 49.03-1.549 23.15-2.365 42.06-8.358 56.24-17.818 27.26-18.225 44.01-46.236 58.07-73.757 11.62-22.792 20.3-43.178 27.96-61.851 1.99-4.893 4.52-11.213 6.36-17.084l.65-2.12c.93-2.895 1.79-5.668 2.16-7.87.93-5.83-.57-9.295-1.92-12.394-.89-2.08-1.79-4.077-1.83-6.605-.04-1.917-.45-3.914-.86-6.035-.89-4.362-2.04-9.826-.28-17.49 1.91-7.992 4.93-17.084 7.86-25.85z" fill="#B9B9B9"/><path opacity=".6" d="M1569.39-108.248c-.65 1.671-1.35 3.343-2.04 5.015-2.77 6.85-5.38 13.332-7.46 19.57-2.12 6.402-2.36 11.213-2.61 15.453-.12 2.569-.28 4.811-.77 6.972-.61 2.61-.49 4.77-.37 7.013.17 3.058.37 6.197-1.34 10.886-.7 1.957-1.88 4.159-3.1 6.524-.41.774-.81 1.55-1.22 2.324-2.28 4.485-5.3 9.54-8.93 15.004-3.22 4.852-6.48 9.54-9.94 14.515-8.52 12.232-17.28 24.912-25.8 40.08-3.91 6.971-7.46 13.821-10.88 20.467-10.76 20.835-20.95 40.528-38.63 54.716-13.41 10.764-32.08 17.043-55.51 18.633-14.47.938-31.09.367-49.35-1.753-1.67-.204-3.34-.408-5.05-.611l-5.22-.694c-21.32-2.813-41.45-5.422-62.31-4.566-11.09.448-21.11 1.835-30.73 4.24-.12.041-.29.082-.41.082-17.2 4.281-33.91 12.191-51.1 24.219-10.23 7.135-20.58 15.534-32.65 26.542-9.82 8.93-19.52 18.226-28.93 27.277-5.99 5.749-12.19 11.702-18.22 17.369-5.46 5.097-10.92 10.03-16.05 14.597-73.52 65.725-163.996 115.752-254.795 140.827-17.646 4.893-43.32 10.397-63.126 1.835-5.054-2.202-9.741-5.219-14.305-9.215-6.357-5.545-11.207-11.987-16.383-18.796-4.523-5.952-9.21-12.109-14.956-17.654-6.48-6.279-14.305-11.416-23.27-15.29-16.668-7.257-37.779-9.337-59.378-5.912-12.104 1.917-24.859 5.342-40.101 10.846-5.828 2.079-11.778 4.322-17.524 6.483-8.395 3.18-17.116 6.482-26.001 9.418-13.204 4.444-26.571 7.869-39.856 10.112-6.439 1.1-13.245 1.916-20.255 2.405-9.984.734-20.173.612-31.135-.326-10.189-.856-19.969-3.425-29.424-5.953-13.041-3.425-26.531-7.013-41.12-5.993a82.837 82.837 0 00-19.032 3.547c-9.047 2.772-17.483 6.442-25.634 9.989-7.743 3.384-15.771 6.85-24.37 9.622-10.637 3.425-20.458 4.934-30.891 4.73-32.481-.571-59.989-8.888-94.955-28.745l-3.057-1.753c-13.53-7.665-26.327-14.922-38.104-23.118-15.079-10.478-28.161-21.568-40.794-32.291l-2.69-2.284a1505.871 1505.871 0 01-28.731-25.034c-2.323-2.079-4.646-4.159-6.928-6.197-14.141-12.721-27.509-24.708-43.117-34.983-8.191-5.382-17.483-10.03-28.405-14.189-19.276-7.298-40.876-7.91-62.597-1.753-8.436 2.406-16.016 6.728-23.352 10.886-8.069 4.608-16.464 9.337-25.837 11.539-7.05 1.631-14.753 2.609-20.662 3.302a652.11 652.11 0 01-22.944 2.324v1.061a662.599 662.599 0 0023.066-2.324c5.95-.694 13.693-1.713 20.784-3.344.285-.081.57-.122.897-.204 9.25-2.283 17.401-6.931 25.267-11.457 7.254-4.158 14.793-8.44 23.066-10.804 21.436-6.116 42.791-5.505 61.782 1.712 10.84 4.118 20.05 8.685 28.16 14.067 15.528 10.233 28.854 22.22 42.954 34.901 2.283 2.079 4.606 4.118 6.929 6.197 10.677 9.5 19.806 17.451 28.771 25.034l2.69 2.284c12.674 10.723 25.756 21.813 40.876 32.332 11.859 8.236 25.267 15.82 38.226 23.199l3.057 1.713c35.17 19.978 62.841 28.337 95.526 28.907 10.595.164 20.498-1.345 31.298-4.811 8.68-2.772 16.75-6.279 24.493-9.663 8.11-3.547 16.505-7.176 25.511-9.948a83.069 83.069 0 0118.747-3.507c14.345-.978 27.753 2.528 40.712 5.953 9.496 2.528 19.358 5.097 29.628 5.994 11.044.937 21.273 1.06 31.339.326 7.051-.489 13.897-1.305 20.377-2.406 13.326-2.242 26.775-5.667 40.02-10.152 8.925-2.976 17.646-6.279 26.082-9.459 5.746-2.161 11.655-4.404 17.483-6.483 15.16-5.463 27.834-8.888 39.857-10.764 21.354-3.384 42.179-1.345 58.644 5.831 8.802 3.832 16.545 8.888 22.903 15.085 5.705 5.464 10.351 11.58 14.875 17.532 4.972 6.565 10.107 13.292 16.546 18.96 4.646 4.077 9.455 7.175 14.63 9.418 20.132 8.725 46.133 3.221 63.983-1.753 90.961-25.157 181.6-75.225 255.24-141.073 5.13-4.566 10.59-9.54 16.05-14.637 6.04-5.667 12.23-11.62 18.22-17.369 9.37-9.01 19.07-18.347 28.9-27.236 11.98-10.927 22.33-19.367 32.52-26.42 17.07-11.947 33.66-19.775 50.69-24.015.13-.041.25-.082.41-.082 9.54-2.364 19.48-3.751 30.48-4.199 20.75-.856 40.84 1.753 62.11 4.566l5.22.693c1.67.204 3.38.449 5.05.612 18.34 2.12 35.01 2.691 49.6 1.753 23.68-1.59 42.59-7.95 56.2-18.877 17.85-14.352 28.08-34.127 38.92-55.084 3.42-6.646 6.97-13.495 10.88-20.427 8.52-15.126 17.28-27.766 25.75-39.997 3.47-4.975 6.73-9.663 9.95-14.515 3.67-5.505 6.68-10.56 9-15.086l1.23-2.324c1.26-2.365 2.4-4.648 3.14-6.646 1.79-4.893 1.58-8.155 1.42-11.294-.12-2.202-.24-4.281.33-6.768.53-2.283.65-4.648.81-7.176.25-4.2.49-8.93 2.57-15.208 2.04-6.198 4.69-12.68 7.42-19.53.69-1.672 1.34-3.384 2.04-5.056.04-.122.08-.204.12-.326h-1.1v.041z" fill="#B9B9B9"/><path opacity=".6" d="M1548.19-108.246c-.32.734-.69 1.427-1.02 2.161-2.15 4.689-3.42 8.725-4.56 12.232-1.06 3.302-1.96 6.116-3.34 8.929-1.18 2.406-1.92 4.607-2.61 6.727-1.02 3.1-2.08 6.28-4.56 10.316-1.19 1.916-2.73 3.873-4.36 5.993-.49.612-.98 1.264-1.47 1.917-3.22 4.2-7.21 8.684-11.53 13.006-3.47 3.425-7.1 6.85-10.6 10.152-11.53 10.805-23.47 22.017-32.97 37.225-6.85 11.009-11.49 22.344-15.93 33.352-6.61 16.227-12.84 31.558-25.39 43.667-12.68 12.191-31.3 18.796-55.31 19.612-15.32.49-32.52-1.223-49.84-5.056-2.12-.448-4.24-.978-6.31-1.468l-.74-.163c-3.71-.897-7.37-1.794-11.04-2.69-17.97-4.445-36.56-9.052-55.22-10.316-11.45-.775-21.89-.286-31.91 1.55-18.06 3.22-35.29 10.804-52.57 23.239-10.19 7.299-20.67 16.391-32.04 27.848-10.39 10.397-20.41 21.487-30.07 32.169-4.77 5.26-9.66 10.683-14.47 15.861a557.5 557.5 0 01-15.16 15.779c-68.63 69.679-158 123.173-251.611 150.612-18.053 5.342-44.38 11.213-63.86 1.02-4.89-2.569-9.332-6.075-13.53-10.683-5.053-5.545-8.925-11.824-13-18.429-4.442-7.257-9.048-14.718-15.364-21.16-6.358-6.483-14.305-11.621-23.678-15.249-17.116-6.605-39.205-7.421-60.6-2.243a38.17 38.17 0 00-1.019.245c-14.304 3.547-27.549 8.97-38.675 13.822-3.301 1.427-6.561 2.894-9.821 4.322-10.719 4.77-21.803 9.663-33.377 13.74-13.286 4.729-26.857 7.95-40.428 9.622-6.642.815-13.611 1.223-20.743 1.182-10.311-.04-20.662-1.1-31.625-3.261-9.821-1.917-19.154-5.831-28.201-9.623-13.245-5.545-26.938-11.253-42.139-10.641-6.48.285-12.756 1.549-19.235 3.873-9.048 3.262-17.239 7.788-25.145 12.15-7.539 4.159-15.364 8.481-23.841 11.62-10.514 3.915-20.458 5.26-31.176 4.282-36.434-3.303-63.942-19.123-94.018-41.914l-.774-.571c-12.145-9.215-24.697-18.715-35.659-28.785-15.038-13.782-27.957-28.5-38.92-41.221-8.354-9.704-16.464-19.653-24.778-30.376a1229.575 1229.575 0 01-6.642-8.684c-11.126-14.556-22.578-29.642-36.72-42.077-7.865-6.972-16.708-12.721-27.019-17.655-19.317-9.214-41.038-10.07-62.8-2.446-8.273 2.895-15.446 7.869-22.374 12.639-8.11 5.627-15.812 10.927-25.063 13.211l-.978.244c-5.706 1.264-12.389 2.12-20.988 2.691-7.377.49-15.487.775-24.126.816v1.06c8.639-.082 16.79-.326 24.207-.816 8.68-.57 15.405-1.427 21.192-2.731 9.944-2.202 18.339-8.033 26.49-13.659 6.887-4.77 13.978-9.663 22.088-12.517 21.436-7.543 42.831-6.687 61.863 2.405 10.23 4.893 18.95 10.601 26.775 17.492 14.06 12.394 25.471 27.399 36.556 41.914 2.2 2.894 4.442 5.789 6.683 8.684 8.314 10.723 16.424 20.672 24.819 30.416 10.963 12.721 23.963 27.481 39.001 41.303 11.003 10.111 23.596 19.652 35.741 28.866l.774.571c30.239 22.914 57.87 38.816 94.629 42.159 10.963 1.019 21.029-.367 31.747-4.363 8.517-3.18 16.383-7.502 24.004-11.661 7.865-4.322 16.016-8.806 24.981-12.068 6.358-2.284 12.512-3.547 18.869-3.792 14.916-.612 27.876 4.811 41.569 10.56 9.088 3.792 18.502 7.747 28.445 9.663 11.085 2.161 21.518 3.262 31.87 3.303 7.172.04 14.182-.367 20.906-1.183 13.612-1.672 27.305-4.933 40.672-9.663 11.574-4.077 22.699-9.011 33.458-13.781 3.301-1.468 6.561-2.895 9.822-4.322 11.329-4.974 24.981-10.519 39.49-14.025 21.151-5.097 42.954-4.322 59.825 2.201 9.211 3.547 17.035 8.603 23.271 14.964 6.235 6.36 10.799 13.781 15.241 20.957 3.913 6.36 7.988 12.965 13.082 18.592 4.279 4.729 8.803 8.277 13.856 10.927 19.888 10.397 46.5 4.485 64.798-.938 93.814-27.521 183.393-81.137 252.143-150.939 4.52-4.607 9.86-10.071 15.16-15.82 4.81-5.178 9.74-10.641 14.51-15.901 9.65-10.682 19.68-21.732 30.03-32.129 11.33-11.416 21.76-20.467 31.87-27.725 17.12-12.313 34.15-19.856 52.08-23.036 9.95-1.794 20.26-2.283 31.59-1.509 18.54 1.264 36.23 5.627 54.97 10.275 3.67.897 7.34 1.835 11.05 2.69l.73.164c2.12.49 4.24 1.02 6.36 1.468 17.4 3.832 34.76 5.586 50.17 5.056 24.33-.816 43.23-7.543 56.11-19.979 12.72-12.232 18.99-27.684 25.64-44.034 4.44-10.968 9.08-22.262 15.89-33.189 9.41-15.126 21.31-26.257 32.81-37.02 3.54-3.303 7.17-6.728 10.63-10.153 4.36-4.322 8.4-8.848 11.62-13.088.49-.653.98-1.264 1.47-1.916 1.67-2.12 3.21-4.118 4.4-6.075 2.52-4.118 3.62-7.38 4.68-10.52.74-2.202 1.43-4.24 2.57-6.605 1.39-2.854 2.32-5.749 3.38-9.051 1.14-3.507 2.41-7.502 4.53-12.151.36-.856.81-1.712 1.22-2.568h-1.39v.122z" fill="#B9B9B9"/><path opacity=".6" d="M1521.75-108.246c-1.02 1.345-2 2.691-2.94 3.996-2.85 3.914-5.54 7.624-9.45 11.742-1.96 2.08-4.2 4.077-6.56 6.197l-.82.734a131.986 131.986 0 01-14.14 11.009c-4.2 2.854-8.68 5.586-13 8.277-14.02 8.684-28.53 17.613-38.47 31.884-8.28 11.946-11.9 25.442-15.41 38.53-3.99 14.84-7.74 28.826-17.77 40.323-11.73 13.455-30.81 20.59-55.14 20.631-15.85 0-33.7-2.935-50.33-8.317-2.36-.775-4.72-1.59-7.09-2.406-5.13-1.794-10.35-3.71-15.36-5.545-16.71-6.157-34.03-12.476-51.59-15.493-11.66-2.04-22.42-2.406-32.93-1.183-18.87 2.161-36.48 9.418-53.8 22.221-10.19 7.502-20.46 17.043-31.42 29.152-10.88 11.987-21.03 24.912-30.85 37.388-3.75 4.771-7.46 9.46-11.12 14.026a525.874 525.874 0 01-14.23 17.002c-64.183 73.676-152.414 130.676-248.47 160.439-18.542 5.749-45.399 12.069-64.594.204-4.768-2.935-8.965-6.931-12.715-12.15-4.075-5.627-7.254-12.109-10.31-18.388-4.116-8.44-8.395-17.165-15.038-24.382-6.235-6.768-14.345-11.865-24.126-15.167-17.605-5.953-40.713-5.423-61.823 1.427-14.223 4.607-27.753 11.375-39.327 17.328l-4.646 2.405c-12.226 6.32-24.859 12.844-38.226 17.818-13.367 4.974-27.142 8.032-40.957 9.092-7.051.53-14.142.489-21.192-.041-10.433-.774-21.232-2.854-32.154-6.197-9.618-2.936-18.665-8.155-27.427-13.21-13.286-7.665-27.02-15.535-42.628-15.371-6.521.081-12.878 1.467-19.44 4.158-9.128 3.792-17.157 9.174-24.9 14.393-7.621 5.137-14.834 9.989-23.025 13.455-10.352 4.403-20.377 5.626-31.503 3.792-39.53-6.402-69.199-31.436-93.039-55.084-9.985-9.907-21.559-21.65-31.706-33.841-11.493-13.781-22.415-28.989-34.396-47.867a539.402 539.402 0 01-20.784-35.675c-1.794-3.384-3.587-6.809-5.38-10.234-9.047-17.328-18.38-35.227-31.34-50.15-7.538-8.603-15.934-15.494-25.674-21.12-19.072-11.009-41.446-12.11-63.045-3.14-8.192 3.425-15.079 9.052-21.722 14.515-8.273 6.769-16.056 13.088-25.96 15.29-5.827 1.264-12.837 1.916-21.354 2.08-8.477.203-17.117-.205-25.349-.694v1.06c8.232.53 16.872.897 25.308.734 8.6-.163 15.65-.815 21.6-2.12.366-.082.733-.163 1.059-.245 9.659-2.405 17.32-8.684 25.39-15.29 6.56-5.381 13.407-10.967 21.436-14.31 21.232-8.848 43.198-7.747 61.904 3.058 9.617 5.545 17.931 12.394 25.389 20.916 12.878 14.84 22.21 32.658 31.217 49.946 1.793 3.425 3.586 6.85 5.38 10.234a550.219 550.219 0 0020.824 35.757c12.023 18.918 22.945 34.167 34.478 47.948 10.188 12.232 21.762 24.015 31.746 33.923 23.963 23.77 53.836 48.967 93.692 55.41 11.37 1.875 21.6.611 32.195-3.874 8.314-3.547 15.894-8.644 23.23-13.577 7.702-5.178 15.69-10.56 24.696-14.27 6.399-2.651 12.634-3.996 18.951-4.078 15.282-.163 28.242 7.299 41.975 15.208 8.844 5.097 17.973 10.357 27.713 13.292 11.003 3.344 21.925 5.464 32.439 6.238 7.091.571 14.264.571 21.396.041 13.978-1.06 27.875-4.159 41.324-9.174 13.448-5.015 26.122-11.538 38.389-17.899l4.646-2.405c11.533-5.953 25.023-12.68 39.164-17.247 20.866-6.768 43.688-7.298 61.008-1.468 9.577 3.262 17.564 8.236 23.637 14.882 6.561 7.095 10.799 15.738 14.875 24.137 3.097 6.32 6.276 12.844 10.392 18.511 3.871 5.341 8.15 9.378 13.041 12.436 19.643 12.109 46.866 5.749 65.653-.082 96.259-29.845 184.694-86.927 249.003-160.765 5.3-6.075 9.98-11.661 14.26-17.002 3.71-4.608 7.38-9.296 11.13-14.067 9.82-12.476 19.97-25.4 30.81-37.347 10.88-12.069 21.11-21.528 31.26-29.03 17.15-12.68 34.56-19.856 53.22-21.976 10.35-1.183 20.99-.816 32.56 1.182 17.49 2.976 34.72 9.296 51.39 15.412 5.06 1.835 10.23 3.751 15.37 5.545 2.36.815 4.76 1.63 7.13 2.406 16.75 5.422 34.76 8.399 50.74 8.399 24.73-.041 44.09-7.299 56.03-21.039 10.19-11.66 13.98-25.768 18.01-40.731 3.51-12.966 7.1-26.38 15.29-38.204 9.78-14.067 24.2-22.996 38.14-31.599 4.32-2.69 8.8-5.422 13.04-8.276 5.18-3.507 9.95-7.217 14.27-11.09l.77-.734c2.41-2.12 4.65-4.16 6.64-6.28 3.96-4.199 6.65-7.91 9.54-11.864 1.02-1.427 2.08-2.854 3.22-4.363.04-.081.08-.122.16-.204h-1.46v.082z" fill="#B9B9B9"/><path opacity=".6" d="M1472.88-108.246c-3.83 2.161-7.74 4.24-11.82 6.116-5.17 2.405-10.71 4.566-16.09 6.686-16.26 6.442-33.05 13.088-43.24 26.217-9.13 11.824-11.09 26.624-12.96 40.976-1.8 13.863-3.67 28.174-12.07 39.713-21.15 28.989-69.64 25.482-105.79 9.989-8.31-3.547-16.71-7.665-24.82-11.58-26.53-12.884-53.96-26.216-83.91-24.545-19.64 1.101-37.66 8.033-55.06 21.202-24.57 18.633-43.44 46.236-61.7 72.942-2.85 4.2-5.7 8.358-8.52 12.395-60.311 86.722-152.169 153.63-258.657 188.408-29.75 9.704-51.146 9.541-65.369-.57-10.922-7.788-15.364-19.612-20.091-32.17-3.627-9.581-7.336-19.448-14.223-27.358-20.214-23.159-59.581-21.405-87.619-9.989-14.06 5.749-27.183 13.577-39.857 21.12-13.245 7.91-26.938 16.064-41.65 21.813-31.258 12.191-63.453 11.579-95.852-1.794-9.495-3.914-18.38-10.478-26.938-16.798-18.257-13.496-37.207-27.44-62.515-15.616-9.251 4.322-17.117 10.642-24.737 16.758-15.405 12.354-29.954 24.055-53.958 18.551-42.709-9.826-73.03-43.667-92.102-68.253-31.869-41.058-56.607-86.111-73.6-133.856-1.386-3.873-2.731-7.787-4.076-11.701C64.897 9.178 53.77-23.113 25.366-42.48 6.294-55.446-16.16-56.791-37.842-46.313c-8.191 3.955-14.834 10.316-21.273 16.431-7.784 7.42-15.16 14.475-24.615 16.799-.326.081-.693.163-1.06.244-13.326 2.732-30.85 1.264-48.129-.978v1.06c17.32 2.283 34.925 3.71 48.415.897 10.27-2.12 18.094-9.541 26.285-17.37 6.358-6.074 12.92-12.353 20.947-16.227 21.274-10.274 43.321-8.97 61.986 3.751 28.12 19.123 39.164 51.251 49.882 82.32 1.345 3.914 2.69 7.828 4.076 11.701 17.035 47.867 41.853 93.002 73.763 134.141 19.195 24.749 49.678 58.753 92.795 68.702 24.575 5.667 39.368-6.198 55.017-18.756 7.58-6.075 15.405-12.354 24.493-16.594 24.656-11.498 42.424 1.631 61.252 15.494 8.64 6.36 17.565 12.965 27.223 16.961 32.725 13.496 65.287 14.107 96.789 1.794 14.835-5.79 28.569-13.985 41.854-21.895 12.634-7.543 25.715-15.33 39.694-21.038 27.631-11.254 66.387-13.048 86.193 9.703 6.765 7.747 10.433 17.532 14.019 27.032 4.565 12.151 9.292 24.668 20.499 32.659 14.549 10.356 36.311 10.601 66.469.734C885.465 246.392 977.526 179.321 1038 92.395c2.82-4.078 5.67-8.236 8.52-12.395 18.22-26.625 37.05-54.146 61.46-72.657 17.2-13.006 34.96-19.856 54.36-20.957 29.59-1.63 56.89 11.62 83.3 24.423 8.15 3.955 16.55 8.032 24.9 11.62 36.56 15.698 85.71 19.122 107.27-10.397 8.55-11.742 10.43-26.176 12.26-40.16 1.84-14.19 3.75-28.908 12.76-40.487 9.98-12.884 26.61-19.49 42.75-25.85 5.38-2.12 10.92-4.322 16.14-6.727 4.64-2.161 9.08-4.526 13.36-7.054h-2.2z" fill="#B9B9B9"/><path opacity=".6" d="M1381.64-108.246c-5.22 3.343-9.95 7.217-13.74 11.987-8.88 11.172-11.08 25.116-13.2 38.611-2.08 13.088-4.2 26.625-12.43 37.43-3.59 4.688-8.07 8.602-13.37 11.701-23.96 13.863-60.07 8.195-85.87-1.794-.69-.285-1.42-.57-2.12-.856-2.44-.979-5.05-2.08-7.74-3.262-5.09-2.202-10.23-4.526-15.24-6.809-25.84-11.702-52.57-23.811-81.47-21.69-2.03.162-4.11.366-6.11.651-16.38 2.284-31.5 8.848-46.21 20.101-2.12 1.59-4.24 3.344-6.32 5.138-20.54 17.695-36.92 41.669-52.78 64.868-2.64 3.874-5.29 7.747-7.9 11.498a435.743 435.743 0 01-10.23 14.107c-24.575 32.618-53.917 62.015-87.213 87.335-44.665 34.004-95.036 60.098-149.686 77.589-17.361 5.545-31.421 7.788-43.036 6.769-7.458-.653-14.019-2.691-19.439-6.035-11.167-6.809-16.342-17.695-21.844-29.193a525.396 525.396 0 00-3.342-6.849c-2.69-5.301-6.031-11.417-10.799-16.799-3.383-3.832-7.377-7.135-11.86-9.826-8.925-5.382-19.643-8.48-31.909-9.174-12.308-.693-25.92 1.264-38.309 5.505-15.038 5.178-29.179 12.925-42.872 20.386-2.364 1.305-4.727 2.569-7.091 3.873-8.925 4.811-18.584 9.786-28.853 13.741-19.481 7.542-39.205 10.682-58.563 9.296-10.8-.734-21.64-2.936-32.277-6.483-9.21-3.099-17.89-8.685-26.245-14.067-9.291-5.952-18.868-12.15-29.179-14.922-10.148-2.732-19.888-2.161-29.75 1.834-9.332 3.711-17.524 9.5-25.43 15.127-6.072 4.322-12.389 8.766-19.195 12.272-10.229 5.301-20.173 6.891-31.176 5.097-18.421-3.017-34.966-10.356-50.616-22.466-12.674-9.785-24.859-22.139-38.348-38.774a558.697 558.697 0 01-9.537-12.232c-9.291-12.313-18.216-25.279-26.408-38.57-15.038-24.178-27.916-49.212-38.226-74.41a799.905 799.905 0 01-4.728-11.865C84.418 3.92 77.612-13.287 67.831-28.25c-7.54-11.498-15.975-20.386-25.797-27.277-17.931-12.517-39.041-14.84-59.5-6.564-7.824 3.18-14.222 8.644-20.417 13.944-7.54 6.442-14.67 12.558-23.84 14.311-7.336 1.427-16.139 1.917-27.753 1.55-11.941-.326-24.208-1.427-36.108-2.447-2.608-.122-4.972-.326-7.335-.53v1.06c2.323.204 4.686.408 7.091.612 11.9 1.02 24.207 2.08 36.189 2.446 11.696.367 20.62-.122 28.038-1.59 9.495-1.916 16.709-8.073 24.37-14.596 6.113-5.22 12.47-10.642 20.132-13.74 20.01-8.114 40.713-5.872 58.278 6.442 9.699 6.809 18.053 15.615 25.511 26.99 9.7 14.842 16.505 32.048 23.067 48.642 1.589 3.996 3.138 7.95 4.727 11.865 10.351 25.238 23.229 50.354 38.308 74.572a520.87 520.87 0 0026.449 38.653 457.788 457.788 0 009.577 12.231c13.571 16.717 25.797 29.112 38.553 38.979 15.812 12.231 32.561 19.652 51.186 22.71 11.288 1.835 21.436.204 31.95-5.219 6.888-3.547 13.204-8.032 19.358-12.354 7.865-5.545 15.975-11.335 25.186-14.963 9.617-3.833 19.072-4.445 28.934-1.754 10.148 2.732 19.644 8.848 28.854 14.801 8.436 5.422 17.198 11.049 26.53 14.188 10.759 3.588 21.722 5.79 32.603 6.524 19.561 1.386 39.449-1.794 59.092-9.378 10.311-3.995 20.051-9.01 28.976-13.821a613.039 613.039 0 007.091-3.874c13.652-7.461 27.753-15.167 42.709-20.304 12.267-4.2 25.716-6.116 37.86-5.464 12.063.693 22.618 3.71 31.339 8.97 4.402 2.65 8.273 5.871 11.574 9.622 4.687 5.301 7.988 11.335 10.637 16.595a344.283 344.283 0 013.301 6.809c5.583 11.66 10.84 22.71 22.292 29.682 5.624 3.425 12.348 5.545 20.01 6.197 11.777 1.02 26-1.223 43.524-6.85 54.773-17.532 105.266-43.707 150.054-77.752 33.377-25.361 62.76-54.798 87.419-87.538 3.42-4.567 6.88-9.297 10.23-14.149 2.6-3.75 5.25-7.624 7.9-11.497 15.81-23.118 32.16-47.01 52.57-64.624 2.08-1.794 4.16-3.507 6.28-5.097 14.55-11.09 29.46-17.614 45.6-19.856 2-.285 4-.49 6.03-.652 28.57-2.12 55.14 9.948 80.86 21.568 5.01 2.243 10.15 4.607 15.24 6.81 2.69 1.181 5.3 2.242 7.74 3.26.7.286 1.43.572 2.12.857 26.04 10.07 62.6 15.82 86.97 1.713 5.46-3.14 10.07-7.176 13.69-11.988 8.4-11.049 10.56-24.708 12.64-37.877 2.12-13.373 4.28-27.195 13-38.163 4.03-5.096 9.21-9.133 14.91-12.599h-1.99v-.081z" fill="#B9B9B9"/><path opacity=".6" d="M1325.8-108.248c-2.48 6.849-3.87 14.107-5.21 21.201-2.33 12.314-4.73 25.034-12.8 35.187-3.46 4.362-7.82 7.991-13 10.845-18.95 10.52-49.6 9.745-81.91-1.998-.7-.244-1.35-.489-2.04-.733-2.49-.938-4.97-1.917-7.42-2.936-4.36-1.753-8.72-3.588-12.96-5.382-26.57-11.13-51.63-21.65-79.75-19-1.92.163-3.87.408-5.83.734-15.49 2.406-29.83 8.807-43.77 19.57-2 1.51-3.99 3.18-5.99 4.934-19.6 17.043-35.29 39.998-50.45 62.178-2.45 3.547-4.852 7.094-7.256 10.56a552.126 552.126 0 01-9.699 13.455c-23.515 31.435-51.431 59.405-82.933 83.175-42.384 32.047-90.513 56.592-142.963 73.024-16.383 5.137-29.79 7.339-40.957 6.768-7.05-.367-13.326-1.957-18.706-4.648-11.736-5.953-17.849-16.105-24.329-26.91-.775-1.305-1.549-2.609-2.364-3.873-3.138-5.138-6.561-10.56-10.963-15.412a57.133 57.133 0 00-11.044-9.5c-8.313-5.505-18.176-8.97-29.301-10.356-11.411-1.427-24.289-.367-36.23 2.894-16.342 4.485-31.828 12.232-46.826 19.693l-1.589.816c-9.251 4.566-18.339 9.011-27.712 12.599-19.276 7.379-37.371 10.967-55.384 11.049a124.917 124.917 0 01-30.443-3.629c-9.006-2.242-17.564-6.85-25.837-11.335-8.558-4.607-17.402-9.377-26.816-11.579-9.984-2.324-18.95-2.039-28.323 1.019-9.903 3.221-18.462 8.481-27.509 14.067-5.176 3.18-10.514 6.483-16.26 9.459-9.903 5.137-19.195 7.094-29.221 6.197-18.461-1.631-33.906-7.379-48.537-18.143-12.144-8.929-24.003-20.386-37.289-36.125a505.03 505.03 0 01-9.332-11.416c-9.007-11.416-17.769-23.525-26.083-36.043-15.241-22.832-28.486-46.072-39.367-69.027A663.697 663.697 0 01105.773.858C99.089-13.86 92.202-29.068 83.033-42.36c-7.418-10.764-15.487-19.245-24.656-25.89-16.79-12.11-36.638-15.413-55.75-9.256-7.459 2.406-13.653 6.972-19.644 11.416-6.52 4.811-12.674 9.378-20.213 11.253-.571.123-1.142.286-1.712.367-8.477 1.59-18.054 1.917-26.286 2.08-17.157.285-34.763-.082-50.29-.367l-6.642-.123c-3.098-.285-6.684-.244-10.759-.163v1.06c4.034-.081 7.661-.122 10.677-.081l6.643.122c15.527.327 33.173.653 50.33.367 8.314-.122 17.932-.489 26.49-2.08 8.64-1.63 15.608-6.808 22.414-11.823 5.95-4.363 12.063-8.93 19.317-11.253 18.706-5.994 38.145-2.773 54.61 9.092 9.088 6.564 17.035 14.923 24.41 25.605 9.13 13.21 16.017 28.418 22.66 43.056 1.874 4.118 3.749 8.236 5.624 12.313 10.922 22.995 24.166 46.276 39.408 69.19 8.314 12.558 17.076 24.708 26.123 36.125 3.138 3.955 6.276 7.828 9.373 11.457 13.367 15.779 25.267 27.317 37.493 36.287 14.834 10.927 30.443 16.757 49.149 18.388 10.31.897 19.806-1.1 29.913-6.36 5.787-3.017 11.166-6.32 16.342-9.5 9.006-5.545 17.483-10.764 27.223-13.944 9.088-2.936 17.891-3.262 27.631-.979 9.251 2.161 18.013 6.891 26.489 11.498 8.355 4.485 16.954 9.174 26.123 11.416 9.985 2.487 20.336 3.711 30.769 3.67 18.176-.082 36.474-3.71 55.832-11.131 9.455-3.629 18.543-8.032 27.834-12.639l1.59-.816c14.956-7.461 30.402-15.167 46.622-19.611 11.818-3.262 24.533-4.281 35.74-2.895 10.922 1.386 20.621 4.77 28.772 10.193 3.994 2.65 7.662 5.79 10.84 9.337 4.32 4.811 7.743 10.193 10.841 15.289.815 1.305 1.589 2.61 2.363 3.874 6.562 10.927 12.756 21.242 24.778 27.317 5.502 2.773 11.982 4.404 19.195 4.811 11.289.571 24.819-1.671 41.406-6.849 52.612-16.432 100.823-41.058 143.37-73.187 31.583-23.811 59.54-51.862 83.136-83.38 3.22-4.321 6.521-8.847 9.7-13.495 2.399-3.465 4.809-7.013 7.249-10.56 15.12-22.14 30.81-45.013 50.29-61.974 2-1.712 4-3.384 5.95-4.892 13.78-10.601 27.88-16.92 43.2-19.327 1.92-.285 3.83-.53 5.75-.733 27.79-2.61 52.73 7.869 79.14 18.918 4.24 1.794 8.64 3.629 13 5.382 2.49.978 4.93 1.998 7.46 2.935.65.245 1.34.53 2.04.775 32.68 11.865 63.7 12.558 82.97 1.917 5.3-2.936 9.74-6.646 13.33-11.131 8.23-10.356 10.67-23.2 13-35.635 1.34-7.176 2.77-14.515 5.3-21.365h-1.19v.041z" fill="#B9B9B9"/><path opacity=".6" d="M1284.56-108.246c-2.24 8.847-5.21 17.532-11.29 24.749-3.38 4.036-7.62 7.42-12.59 10.03-25.23 13.25-62.92 2.894-78-2.161-.65-.204-1.31-.449-1.96-.653-2.4-.856-4.77-1.712-7.13-2.609-3.55-1.305-7.09-2.65-10.6-3.996-26.12-9.989-50.81-19.407-78.12-16.268-1.83.204-3.67.49-5.5.816-14.71 2.568-28.2 8.766-41.33 19.04a100.246 100.246 0 00-5.7 4.73c-18.67 16.39-33.663 38.285-48.171 59.487-2.201 3.22-4.401 6.442-6.602 9.581a413.593 413.593 0 01-9.169 12.762c-22.456 30.212-48.904 56.796-78.614 79.017-40.142 30.09-85.989 53.085-136.279 68.416-15.73 4.811-28.079 6.931-38.878 6.768-6.643-.082-12.674-1.223-17.932-3.303-13-5.178-20.376-15.045-28.201-25.523l-1.386-1.835c-3.056-4.077-6.194-8.317-9.74-12.191-3.178-3.425-6.602-6.523-10.269-9.174-7.784-5.667-16.75-9.54-26.694-11.579-10.596-2.16-22.414-2.039-34.151.285-16.546 3.303-32.236 10.071-46.866 16.717l-3.22 1.427c-7.58 3.425-15.405 6.972-23.392 9.989-19.114 7.217-36.189 11.417-52.246 12.803-9.781.856-19.439.571-28.609-.775-8.925-1.345-17.524-5.015-25.797-8.521-7.702-3.262-15.649-6.646-23.963-8.318-9.74-1.916-18.298-1.875-26.856.204-.163.041-.367.082-.53.122-11.492 2.854-21.477 8.236-33.01 14.475a898.124 898.124 0 01-9.373 5.015c-9.699 5.055-18.135 7.298-27.264 7.339-18.298.04-32.644-4.241-46.459-13.863-11.655-8.114-23.189-18.755-36.27-33.433a494.32 494.32 0 01-9.129-10.642c-8.477-10.193-16.872-21.16-25.715-33.556-16.22-22.669-29.465-43.504-40.468-63.686a1024.386 1024.386 0 01-7.01-13.17c-6.602-12.598-13.449-25.645-21.844-37.184-7.376-10.111-15.038-18.103-23.474-24.463C58.825-93.242 40.853-97.401 22.8-93.364c-.285.04-.53.122-.774.204C15.26-91.49 9.432-87.9 3.767-84.476c-6.154 3.751-12.511 7.625-19.887 8.93-7.458 1.304-15.65 1.916-24.82 2.568-4.971.326-9.943.734-14.874 1.1-13.53 1.06-26.327 2.04-38.268 2.162-2.282 0-4.85.081-7.62.122-9.007.204-20.255.449-31.217-.163v1.06c11.003.57 22.21.367 31.257.163a262.06 262.06 0 017.621-.122c11.982-.122 24.778-1.101 38.35-2.161 4.93-.367 9.861-.775 14.833-1.1 9.21-.653 17.443-1.265 24.982-2.57 7.62-1.345 14.1-5.26 20.336-9.092 5.787-3.547 11.778-7.135 18.665-8.725 17.687-3.955 35.333.122 50.942 11.783 8.354 6.279 15.975 14.189 23.27 24.219 8.354 11.457 15.201 24.463 21.762 37.062 2.282 4.322 4.646 8.807 7.01 13.17 11.044 20.182 24.329 41.057 40.549 63.767 8.884 12.395 17.32 23.404 25.797 33.597a348.196 348.196 0 009.169 10.682c13.123 14.76 24.738 25.442 36.475 33.596 14.019 9.745 28.568 14.108 47.151 14.067 9.373 0 17.932-2.324 27.835-7.461a898.124 898.124 0 009.373-5.015c11.655-6.279 21.721-11.743 33.255-14.515 8.395-1.998 16.749-2.08 26.285-.163 8.233 1.63 16.098 4.974 23.719 8.236 8.395 3.588 17.035 7.257 26.123 8.603 9.291 1.386 19.031 1.63 28.894.774 16.138-1.386 33.336-5.626 52.572-12.884 8.028-3.017 15.893-6.564 23.473-10.03l3.22-1.427c14.59-6.605 30.198-13.373 46.622-16.635 11.574-2.324 23.229-2.406 33.662-.285 9.74 1.997 18.583 5.83 26.204 11.375 3.587 2.61 6.969 5.627 10.107 9.011 3.546 3.873 6.684 8.073 9.699 12.109l1.386 1.835c7.906 10.601 15.364 20.631 28.69 25.89 5.421 2.161 11.615 3.303 18.38 3.384 10.922.164 23.392-1.997 39.246-6.809 50.452-15.371 96.422-38.448 136.645-68.62 29.791-22.302 56.321-48.967 78.858-79.26 3.056-4.119 6.154-8.4 9.169-12.803 2.201-3.14 4.402-6.36 6.602-9.582 14.468-21.16 29.421-43.015 48.011-59.283 1.87-1.63 3.75-3.22 5.62-4.689 12.96-10.111 26.33-16.268 40.79-18.796 1.8-.326 3.63-.57 5.43-.774 27.01-3.099 51.55 6.279 77.51 16.186 3.5 1.346 7.05 2.691 10.59 4.037 2.37.897 4.73 1.753 7.14 2.61.65.244 1.3.448 1.95.692 18.87 6.36 54.28 15.086 78.98 2.08 5.1-2.691 9.46-6.157 12.92-10.275 6.28-7.502 9.29-16.39 11.53-25.401h-1.18z" fill="#B9B9B9"/><path opacity=".6" d="M1015.47-108.246c-.13.082-.25.163-.37.286-1.79 1.386-3.59 2.935-5.38 4.526-17.727 15.738-32.072 36.654-45.929 56.877-1.956 2.895-3.953 5.749-5.909 8.562-2.975 4.322-5.827 8.277-8.639 12.11-21.355 28.948-46.378 54.145-74.334 74.858-37.86 28.132-81.426 49.62-129.555 63.849-14.712 4.322-26.408 6.483-36.8 6.768-6.236.163-12.023-.489-17.198-1.957-12.389-3.506-20.825-10.641-29.709-20.264a230.78 230.78 0 01-5.176-5.87c-1.956-2.243-3.994-4.567-6.072-6.81-3.097-3.302-6.276-6.279-9.455-8.847-7.417-5.953-15.282-10.153-24.044-12.762-9.618-2.854-20.703-3.67-32.073-2.324-16.831 1.998-33.051 7.991-45.359 12.965-2.893 1.183-5.787 2.365-8.639 3.547-5.461 2.284-11.126 4.608-16.832 6.728-14.671 5.464-31.95 11.457-49.067 14.556-9.291 1.671-18.298 2.364-26.774 2.079-9.129-.326-17.606-2.936-26.612-5.667-6.562-1.998-13.327-4.037-20.336-5.138-6.643-1.06-15.527-2.038-25.39-.611-13.856 1.998-26.367 7.502-42.057 15.738-6.398 3.343-15.079 7.339-25.308 8.44-13.285 1.427-27.834 1.264-44.339-9.541-11.207-7.339-22.374-17.124-35.211-30.742-2.975-3.221-5.991-6.524-8.925-9.867-7.906-9.01-16.22-19.163-25.389-31.028-16.872-21.813-30.484-40.895-41.609-58.304-2.894-4.526-5.747-9.215-8.518-13.74-6.48-10.601-13.204-21.57-20.825-31.436-7.458-9.622-14.549-16.961-22.333-23.037-9.332-7.216-19.358-11.905-29.627-13.944h-9.944c13.49.408 26.734 5.382 38.797 14.72 7.702 6.033 14.753 13.291 22.129 22.832 7.58 9.826 14.304 20.753 20.784 31.354 2.771 4.525 5.624 9.214 8.518 13.74 11.125 17.45 24.778 36.532 41.65 58.386 9.21 11.905 17.523 22.099 25.43 31.11a527.737 527.737 0 008.925 9.907c12.878 13.7 24.166 23.526 35.414 30.946 16.872 11.049 32.277 11.131 45.155 9.745 10.433-1.101 19.235-5.178 25.756-8.563 15.568-8.154 27.997-13.617 41.65-15.615 9.658-1.387 18.461-.408 24.982.611 6.887 1.06 13.652 3.099 20.132 5.097 8.68 2.65 17.646 5.341 26.938 5.708 8.599.326 17.686-.408 27.06-2.08 17.238-3.139 34.599-9.133 49.311-14.596 5.706-2.12 11.37-4.485 16.872-6.727 2.894-1.183 5.746-2.365 8.64-3.548 12.185-4.933 28.364-10.886 45.032-12.843 11.167-1.345 22.088-.53 31.543 2.283 8.64 2.569 16.342 6.687 23.637 12.558 3.138 2.528 6.276 5.464 9.333 8.725a303.485 303.485 0 016.072 6.769c1.712 1.957 3.423 3.955 5.216 5.871 9.007 9.785 17.565 17.002 30.239 20.59 5.298 1.468 11.207 2.161 17.565 1.998 10.474-.286 22.251-2.446 37.126-6.809 48.252-14.27 91.98-35.798 129.922-64.013 28.038-20.794 53.142-46.032 74.537-75.102a522.618 522.618 0 008.681-12.15c1.956-2.814 3.912-5.709 5.909-8.563 13.815-20.182 28.12-41.017 45.762-56.673 1.8-1.59 3.59-3.099 5.34-4.485.49-.367.94-.693 1.43-1.06h-1.75v-.123z" fill="#B9B9B9"/><path opacity=".6" d="M964.974-108.247c-7.621 9.745-14.753 20.06-21.722 30.253-1.711 2.528-3.464 5.056-5.175 7.543a576.096 576.096 0 01-8.11 11.457c-20.255 27.725-43.81 51.495-70.014 70.74-35.578 26.216-76.902 46.154-122.831 59.242-13.448 3.833-24.819 6.034-34.681 6.768-5.909.408-11.452.245-16.464-.57-11.656-1.876-21.559-6.646-31.177-15.005-3.627-3.14-6.928-6.605-10.147-9.948l-1.304-1.346c-3.383-3.547-6.072-6.156-8.64-8.48-7.132-6.442-13.937-10.886-21.436-13.985-8.681-3.547-19.032-5.26-29.954-4.934-13.122.408-27.467 3.384-43.81 9.174-4.849 1.713-9.699 3.547-14.426 5.341-3.301 1.264-6.602 2.528-9.944 3.751-4.32 1.59-8.558 3.18-12.715 4.73-11.493 4.322-22.333 8.4-33.214 11.58-8.925 2.568-17.076 4.199-24.982 4.933-9.903.897-19.317-.734-29.301-2.447-4.809-.815-9.74-1.712-14.794-2.242-7.661-.856-15.608-1.712-23.881-1.427-14.101.49-26.408 4.036-41.243 11.824-8.395 4.403-15.608 7.747-23.351 9.581-14.59 3.425-27.386 3.874-42.221-5.26-10.84-6.645-21.68-15.574-34.192-28.091a480.302 480.302 0 01-8.721-9.093c-9.414-10.07-18.339-20.549-25.063-28.54-13.449-15.942-29.016-34.697-42.75-52.923a787.63 787.63 0 01-10.759-14.719c-6.398-8.847-12.43-17.246-19.073-25.278-7.702-9.297-14.223-15.942-21.151-21.651-.407-.366-.855-.652-1.263-.978h-1.834c.774.612 1.549 1.142 2.323 1.753 6.887 5.627 13.367 12.273 21.029 21.487 6.643 7.992 12.633 16.35 19.032 25.198 3.504 4.851 7.091 9.826 10.758 14.718 13.734 18.266 29.343 37.022 42.791 52.964 6.725 7.99 15.69 18.47 25.104 28.581a480.296 480.296 0 008.722 9.092c12.552 12.599 23.473 21.569 34.395 28.255 15.201 9.337 28.283 8.889 43.158 5.382 7.865-1.834 15.16-5.219 23.637-9.663 14.63-7.706 26.775-11.212 40.672-11.701 8.191-.286 16.097.57 23.718 1.427 4.972.53 9.944 1.427 14.712 2.242 10.066 1.753 19.562 3.384 29.628 2.487 7.947-.734 16.22-2.364 25.185-4.974 10.922-3.18 21.803-7.257 33.296-11.58 4.157-1.549 8.395-3.18 12.715-4.729a720.68 720.68 0 009.984-3.75c4.687-1.795 9.537-3.63 14.386-5.342 16.22-5.708 30.402-8.685 43.402-9.092 10.759-.326 20.948 1.345 29.465 4.852 7.376 3.057 14.06 7.42 21.11 13.78 2.568 2.325 5.217 4.934 8.599 8.44l1.304 1.346c3.22 3.384 6.562 6.85 10.189 10.03 9.821 8.48 19.928 13.332 31.787 15.29 5.094.815 10.759 1.019 16.75.611 9.984-.734 21.436-2.976 34.966-6.809 46.051-13.17 87.498-33.148 123.197-59.446 26.327-19.285 49.964-43.178 70.259-70.944 2.527-3.465 5.176-7.216 8.151-11.457 1.711-2.487 3.464-5.015 5.175-7.543 7.091-10.356 14.386-20.916 22.17-30.783h-1.426v-.122z" fill="#B9B9B9"/><path opacity=".6" d="M921.98-108.247c-1.222 1.794-2.445 3.547-3.667 5.3a1035.565 1035.565 0 01-7.581 10.764c-19.113 26.42-41.242 48.846-65.735 66.582-33.336 24.3-72.378 42.688-116.106 54.675-12.063 3.303-22.74 5.504-32.643 6.768-5.746.694-10.881.979-15.731.775-12.96-.49-23.637-3.67-32.684-9.744-4.646-3.14-8.436-6.769-11.533-9.908-1.467-1.509-2.935-3.017-4.361-4.526-1.141-1.223-2.323-2.405-3.464-3.629-5.216-5.382-11.126-10.927-18.828-15.167s-17.361-6.85-27.875-7.543c-12.919-.856-27.509 1.02-42.261 5.382-6.928 2.039-13.775 4.526-20.377 6.89l-2.894 1.02c-9.658 3.466-18.705 7.502-27.426 11.416-5.298 2.365-10.27 4.567-15.364 6.687-8.151 3.384-15.568 5.912-22.7 7.665-.163.04-.285.082-.448.122-12.675 3.058-24.982 2.324-38.023 1.509l-3.179-.163c-4.605-.286-9.21-.816-13.652-1.305a520.95 520.95 0 00-8.721-.938c-11.248-1.019-23.963-.774-40.387 7.95-1.508.816-3.016 1.591-4.483 2.407-5.787 3.098-11.248 6.075-16.953 8.317-14.019 5.504-25.593 7.298-40.101-.978-10.515-5.994-21.07-14.067-33.133-25.402a393.046 393.046 0 01-8.517-8.276C234.268-.527 225.751-9.7 218.456-17.61l-9.292-10.03c-12.144-13.088-23.636-25.442-34.558-37.552-5.38-5.993-10.555-12.027-15.568-17.858-5.135-5.912-9.903-11.457-14.834-16.961a318.219 318.219 0 00-7.58-8.236h-1.549a305.139 305.139 0 018.232 8.93c4.931 5.503 9.699 11.048 14.753 16.92 5.012 5.83 10.229 11.864 15.568 17.858 10.921 12.11 22.414 24.463 34.599 37.551l9.292 9.99c7.295 7.91 15.853 17.124 24.737 26.053 2.894 2.895 5.746 5.708 8.518 8.317 12.144 11.417 22.74 19.53 33.336 25.565 14.875 8.48 27.223 6.564 41.201 1.06 5.747-2.283 11.248-5.219 17.076-8.358 1.467-.816 2.975-1.59 4.483-2.406 16.179-8.562 28.609-8.807 39.694-7.788 2.934.286 5.868.612 8.721.938 4.483.53 9.088 1.02 13.734 1.305l3.178.204c13.164.815 25.553 1.55 38.39-1.55.163-.04.285-.081.448-.122 7.173-1.794 14.671-4.322 22.863-7.747 5.135-2.12 10.107-4.321 15.405-6.686 8.721-3.874 17.727-7.91 27.345-11.376l2.894-1.02c6.602-2.405 13.407-4.851 20.335-6.89 14.59-4.321 29.058-6.197 41.813-5.34 10.311.692 19.806 3.22 27.346 7.42 7.539 4.159 13.367 9.663 18.542 14.963l3.465 3.588a436.25 436.25 0 004.401 4.567c3.138 3.18 7.009 6.89 11.737 10.07 9.251 6.198 20.132 9.46 33.336 9.99 4.89.163 10.107-.082 15.935-.775 9.943-1.264 20.702-3.466 32.806-6.809 43.85-12.028 83.055-30.498 116.514-54.88 24.574-17.817 46.784-40.283 65.979-66.825 2.364-3.262 4.85-6.81 7.621-10.805l4.035-5.871h-1.427v-.041z" fill="#B9B9B9"/><path opacity=".6" d="M878.373-108.247c-14.671 17.777-30.605 32.74-48.292 45.38C791.487-35.102 744.417-15.94 690.134-5.99c-15.16 2.772-34.396 5.015-49.189-2.365-7.947-3.995-13.164-9.744-18.706-16.35l-.774-.897c-4.483-5.34-9.17-10.886-15.405-15.452-18.543-13.455-46.5-13.251-66.509-8.562-7.214 1.671-14.101 3.914-22.17 6.768-12.389 4.362-23.433 10.641-34.111 16.716a380.95 380.95 0 01-5.542 3.14c-7.988 4.485-14.957 7.95-21.314 10.642-11.819 4.974-24.371 7.38-38.349 7.38-7.336 0-14.386-1.469-20.906-3.018-10.678-2.568-23.434-4.566-39.572 3.996-4.401 2.324-8.517 4.974-12.511 7.502-14.427 9.174-26.897 17.124-44.992 7.665-12.592-6.605-25.063-15.901-40.386-30.212-6.48-6.075-12.838-12.273-18.991-18.266l-5.38-5.26C220.249-57.282 205.414-70.9 190.336-84.72a851.768 851.768 0 01-24.697-23.485h-1.589a903.144 903.144 0 0025.43 24.219c15.119 13.821 29.913 27.48 44.991 42.158l5.38 5.26c6.154 5.993 12.511 12.231 18.991 18.266 15.405 14.392 27.957 23.77 40.631 30.416 18.746 9.785 32.114 1.305 46.255-7.706 3.953-2.528 8.069-5.137 12.389-7.461 15.771-8.4 28.242-6.402 38.675-3.915 6.561 1.59 13.693 3.058 21.192 3.058 13.978 0 27.019-2.487 38.837-7.461 6.399-2.691 13.449-6.197 21.477-10.723 1.834-1.02 3.709-2.08 5.543-3.14 10.636-6.034 21.64-12.313 33.907-16.635 8.028-2.813 14.875-5.056 22.047-6.727 19.725-4.607 47.274-4.852 65.491 8.399 6.153 4.485 10.759 9.948 15.241 15.249l.775.897c5.624 6.686 10.922 12.517 19.072 16.635 15.12 7.584 34.64 5.3 49.964 2.487 54.446-9.99 101.72-29.193 140.436-57.081 18.013-12.843 34.151-28.092 49.026-46.236h-1.427z" fill="#B9B9B9"/></g></g></g><defs><clipPath id="clip0"><path fill="#fff" d="M0 0h1600v1127H0z"/></clipPath></defs></svg>