<svg xmlns="http://www.w3.org/2000/svg" xmlns:xlink="http://www.w3.org/1999/xlink" width="136" height="86" viewBox="0 0 136 86">
  <defs>
    <polygon id="logo-a" points=".316 .001 26.905 .001 26.905 37.53 .316 37.53"/>
    <polygon id="logo-c" points=".324 .332 36.854 .332 36.854 27.238 .324 27.238"/>
  </defs>
  <g fill="none" fill-rule="evenodd">
    <path fill="#F6A132" d="M113.386943,8.64497661 C113.018322,8.64497661 112.642765,8.68658952 112.26166,8.76565403 C111.554588,8.91095242 103.951217,10.3701782 100.857991,10.9489444 C100.449144,11.0245411 100.119362,11.2024363 99.8658702,11.534646 C98.3469992,13.5275573 96.8270879,15.519775 95.301975,17.5074847 C95.0283702,17.8622347 94.9281524,18.2447266 94.9964669,18.6788879 C95.208346,20.016396 96.6034185,29.0273234 97.0920234,32.1957992 C97.1142169,32.3591298 97.1395315,32.5176056 97.319854,32.5737831 C97.3593863,32.5869605 97.3975315,32.5932024 97.4318621,32.5932024 C97.5782008,32.5932024 97.6857008,32.4929847 97.7848782,32.3785492 C98.4215556,31.6170331 105.116031,23.5347669 105.757217,22.8682669 C105.94933,22.6671379 106.158781,22.4819605 106.386612,22.3141218 C105.99337,22.8315089 95.9258218,36.8973637 94.750604,38.5261621 C94.3518137,39.0792669 94.3864911,39.4451137 94.8782169,39.922275 C95.7132492,40.7309524 96.5302492,41.5476056 97.0729508,42.6000653 C97.5573944,43.5367024 97.9291363,44.5149524 98.3466524,45.4744766 C98.5158782,45.8618234 98.6712331,46.0015734 99.0044831,46.0015734 C99.075225,46.0015734 99.1567169,45.9935976 99.247225,45.9811137 C100.588894,45.8042589 101.934031,45.6246298 103.276048,45.4505492 C103.664435,45.3974927 103.966128,45.2241056 104.209217,44.9061137 C105.082394,43.7582911 116.101144,29.422646 118.651669,26.1171944 C119.02029,25.6369121 119.185007,25.1330492 119.12779,24.5168315 C119.003991,23.2015169 118.92666,21.8830815 118.83858,20.5674202 C118.66658,18.0671782 118.503249,15.5662427 118.147459,13.0847266 C118.00216,12.0912185 117.654693,11.1899524 117.026338,10.4020815 C116.876185,10.2106621 116.707306,10.0289524 116.54987,9.843775 C116.315798,9.66587984 116.082765,9.48798468 115.846959,9.31147661 C115.805346,9.30142016 115.755064,9.30142016 115.72108,9.28096048 C114.977943,8.84437177 114.197354,8.64497661 113.386943,8.64497661 M113.386943,10.3202427 L113.386943,10.3202427 C113.921669,10.3202427 114.409233,10.4527105 114.884314,10.7311702 C114.947773,10.7700089 115.014007,10.800525 115.075386,10.8279202 L115.189128,10.9135734 L115.39962,11.0741298 C115.415919,11.0914685 115.429443,11.1056863 115.44262,11.123025 C115.536249,11.2308718 115.630572,11.3366379 115.719693,11.4479524 C116.13062,11.9653395 116.382725,12.5794766 116.491959,13.3253879 C116.82937,15.6640331 116.992701,18.0904121 117.152217,20.4380734 L117.170943,20.6832427 L117.22712,21.5255573 C117.293701,22.5544363 117.365136,23.6193798 117.463273,24.6773879 C117.478878,24.8258073 117.468475,24.9156218 117.329072,25.0966379 C114.888475,28.258525 104.21962,42.1405895 102.947652,43.8071863 C102.245088,43.8994282 101.545991,43.993404 100.84516,44.0846056 C100.443249,44.136275 100.044459,44.1907185 99.6453218,44.2441218 C99.6102976,44.1619363 99.5770073,44.082525 99.5426766,44.0006863 C99.2437573,43.2922266 98.9396363,42.559146 98.5647734,41.8340411 C98.003346,40.7472508 97.2619427,39.9195008 96.4144266,39.0834282 C97.0868218,38.1471379 98.5013137,36.1746863 100.107919,33.9289766 C103.211894,29.5984605 107.463693,23.6672347 107.721346,23.3277427 C108.222088,22.6678315 108.16383,21.7374363 107.582636,21.1437589 C107.258402,20.8115492 106.824935,20.639896 106.384531,20.639896 C106.042959,20.639896 105.696531,20.7456621 105.402467,20.9589282 C105.102507,21.1770492 104.816419,21.4281137 104.545935,21.7093476 C104.118362,22.1539121 101.765499,24.965904 98.3098944,29.1223395 C97.7089347,25.2353476 96.8527492,19.7039524 96.6616766,18.4846944 C98.1659831,16.5229927 99.6654347,14.5578234 101.160378,12.5923073 C104.244241,12.0166621 111.878128,10.5505008 112.595951,10.4020815 C112.874757,10.3479847 113.137265,10.3202427 113.386943,10.3202427"/>
    <g transform="translate(68.661 .345)">
      <mask id="logo-b" fill="#fff">
        <use xlink:href="#logo-a"/>
      </mask>
      <path fill="#EE81B3" d="M11.3926419,0.00121370968 C9.94485968,0.00121370968 8.70340806,0.610149194 7.69984355,1.84189113 C6.38834355,3.45161694 1.92813387,9.96542339 0.841343548,11.489496 C0.420359677,12.0793589 0.244891935,12.7188105 0.341641935,13.4342056 C0.640214516,15.614375 0.940174194,17.7955847 1.2370129,19.9767944 C1.29943226,20.4355766 1.48842419,20.8107863 1.87507742,21.0833508 C2.70456129,21.6676653 12.0854968,28.4238669 12.8050532,28.9502702 C12.9000694,29.0199718 12.9964726,29.062625 13.0963435,29.062625 C13.1546016,29.062625 13.2139,29.0484073 13.2773597,29.0154637 C13.4590694,28.9218347 13.4538677,28.7529556 13.4382629,28.5740202 C13.3994242,28.1246008 12.8581097,20.7684798 12.6188355,17.5407056 C12.5841581,17.0725605 12.5626581,16.6044153 12.5307548,16.062754 C12.7291097,16.2160282 12.7228677,16.3602863 12.7433274,16.4878992 C12.9187952,17.5233669 15.4089806,32.8584153 15.7550613,35.0326895 C15.8636016,35.7193024 16.1496903,35.9637782 16.8408113,35.9915202 C17.4580694,36.0151008 18.0815694,36.0324395 18.6988274,36.0813347 C20.2534161,36.1999315 21.7549484,36.5005847 23.07165,37.4212702 C23.1746419,37.4940927 23.2776339,37.5298105 23.3771581,37.5298105 C23.5238435,37.5298105 23.6611661,37.4531734 23.7866984,37.3037137 C24.0700129,36.9683831 24.3630371,36.6410282 24.6598758,36.3150605 C25.2251177,35.6884395 25.842029,35.1079395 26.3309806,34.4116169 C26.8123032,33.731246 27.0273032,32.9933105 26.8358839,32.1745766 C26.6638839,31.4466976 24.2846661,11.2072218 24.1487306,10.0985847 C24.0748677,9.52432661 23.9496823,8.95180242 23.5203758,8.52561694 C22.8146903,7.82964113 22.1048435,7.13470565 21.3360452,6.509125 C20.2926016,5.66403629 15.2383677,1.79195565 13.7746339,0.679157258 C13.4393032,0.426012097 13.0692952,0.232512097 12.6566339,0.143737903 C12.2183113,0.048375 11.7973274,0.00121370968 11.3926419,0.00121370968 M11.3926419,1.67543952 C11.6756097,1.67543952 11.9811177,1.71046371 12.2991097,1.78085887 C12.443021,1.811375 12.5952548,1.88835887 12.7610129,2.01389113 C14.2632387,3.15443145 19.2595613,6.98524597 20.279771,7.81195565 C21.0104242,8.40389919 21.7157629,9.10195565 22.3430774,9.71817339 C22.3607629,9.73759274 22.4280371,9.83468952 22.4859484,10.303875 C22.51265,10.5216492 22.6281258,11.4731976 22.7918032,12.8679234 C24.670279,28.6998992 25.1075613,32.140246 25.2050048,32.5570685 C25.2552871,32.7710282 25.2611823,33.026254 24.9639968,33.4496653 C24.6869242,33.8439476 24.3273194,34.2233185 23.9476016,34.6259234 C23.7679726,34.8142218 23.5900774,35.0028669 23.41565,35.1953266 L23.3521903,35.2667621 C23.2814484,35.3454798 23.2079323,35.4262782 23.1364968,35.5070766 C21.6318435,34.7251008 20.0744806,34.5073266 18.828521,34.4123105 C18.3236177,34.3724315 17.8259968,34.3530121 17.3412065,34.3356734 C16.8220855,31.0999234 14.5604242,17.1866492 14.3964,16.2139476 C14.3648435,15.987504 14.2712145,15.2963831 13.5582468,14.743625 C13.260021,14.5105927 12.8959081,14.3909556 12.5324887,14.3909556 C12.2654726,14.3909556 11.9977629,14.4540685 11.7536339,14.5827218 C11.1710532,14.8885766 10.8225452,15.5075685 10.8606903,16.162625 L10.8880855,16.6564315 C10.9075048,17.0080605 10.9255371,17.3371492 10.9501581,17.6651976 L11.1564887,20.4612379 C11.3160048,22.620254 11.4571419,24.5396492 11.5642952,25.9888185 C8.60665806,23.8558105 3.71887581,20.3391734 2.89806129,19.7572863 L2.89806129,19.7524315 C2.73646452,18.5695847 2.57521452,17.388125 2.41257742,16.205625 L2.00269032,13.2088024 C1.96489194,12.9334637 2.02419032,12.7181169 2.2072871,12.4604637 C2.50239194,12.0443347 3.02671452,11.2911411 3.69113387,10.3378589 C5.43887581,7.82547984 8.07990806,4.02830242 8.9999,2.89989919 C9.67784355,2.06417339 10.4390129,1.67543952 11.3926419,1.67543952" mask="url(#logo-b)"/>
    </g>
    <path fill="#E44E96" d="M61.3723395,16.7777331 C61.2724685,16.7777331 61.1712105,16.783975 61.0678718,16.7971524 C60.261275,16.8984105 52.6457669,17.6422411 49.6759927,18.1617089 C49.557396,18.1821685 49.4370653,18.1943056 49.3163879,18.1943056 L49.3052911,18.1943056 L49.2654121,18.1943056 C48.4397427,18.1943056 47.7396056,18.5202734 47.1081298,19.0303782 C46.952775,19.1559105 46.8012347,19.2880315 46.6479605,19.4166847 C46.4149282,19.7221927 46.1829363,20.0277008 45.9509444,20.3325153 C45.9273637,20.3945879 45.9121056,20.460475 45.8795089,20.5176927 C45.2723073,21.5926927 45.0749927,22.721096 45.3555331,23.9417411 C45.6180411,25.0843621 46.9631782,32.3152976 47.4157185,34.7798218 C47.5357024,35.4286363 47.802025,36.0028944 48.2833476,36.4661847 C48.5777589,36.7505395 48.9366702,36.9443863 49.2667992,37.1784589 C49.5927669,37.4083702 49.9156137,37.6434831 50.2401944,37.875475 L68.6015411,37.875475 C68.603275,37.7475153 68.5269847,37.6608218 68.4257266,37.5769024 C68.2530331,37.4340315 68.0935169,37.2724347 67.9197831,37.1281766 C66.2188556,35.7164589 60.5248234,31.0304992 59.3822024,30.0931685 C59.2698476,30.0023137 59.1734444,29.8906524 59.0288395,29.7477815 C59.2771298,29.7640798 59.4286702,29.8396766 59.5652992,29.9339992 C61.6084927,31.3412089 72.4996298,38.8617008 74.4495411,40.2252169 C74.8677508,40.5175476 75.1222831,40.6680476 75.3594766,40.6680476 C75.6254524,40.6680476 75.8692347,40.4797492 76.2968073,40.0934427 C77.2299766,39.2504347 78.1437266,38.380725 79.3220653,37.8564024 C80.1144444,37.5033863 80.8704121,37.0713056 81.6471863,36.6849992 C81.9832105,36.5182008 82.1285089,36.273725 82.0962589,35.8978218 C82.0043637,34.8543782 81.8899282,33.808854 81.8552508,32.7602089 C81.8264685,31.9546524 81.5043153,31.3946121 80.8575815,30.9191847 C78.0979524,28.9006121 66.0191137,19.7610315 62.7115815,17.2479589 C62.3013476,16.9337815 61.8605976,16.7777331 61.3723395,16.7777331 M61.3723395,18.4529992 C61.4517508,18.4529992 61.5450331,18.4620153 61.7014282,18.5813056 C65.3144685,21.3256766 77.1748395,30.2974185 79.8710089,32.2709105 C80.1480815,32.4748137 80.1754766,32.5767653 80.1848395,32.8167331 C80.213275,33.6684105 80.2909524,34.5082976 80.3655089,35.320096 C80.3696702,35.3641363 80.374525,35.4088702 80.377646,35.4539508 C80.2580089,35.5163702 80.1390653,35.5777492 80.0190815,35.6408621 C79.5440008,35.8905395 79.0949282,36.1242653 78.6451621,36.3260879 C77.3045331,36.921846 76.2780815,37.8512008 75.3736944,38.6716685 L75.2776379,38.7583621 C72.9851137,37.1618137 62.379025,29.8379427 60.5126863,28.552104 C60.0927427,28.2639347 59.6405492,28.1085798 59.1346056,28.0759831 C59.0985411,28.074596 59.0638637,28.0739024 59.0291863,28.0739024 C58.3706621,28.0739024 57.7697024,28.4602089 57.4999121,29.0674105 C57.2152105,29.7061685 57.3580815,30.4552008 57.8567427,30.944846 C57.8976621,30.9836847 57.9323395,31.0214831 57.9659766,31.0540798 C58.0641137,31.1553379 58.1764685,31.2708137 58.3207266,31.3873298 C59.0638637,31.9979992 61.8765492,34.3116766 64.1669927,36.201596 L50.7783879,36.2012492 C50.5966782,36.0701685 50.4146218,35.9397815 50.2336056,35.8128621 C50.1170895,35.7289427 49.9977992,35.650225 49.8774685,35.571854 C49.7026944,35.4563782 49.5369363,35.3488782 49.4440008,35.2590637 C49.3191621,35.1394266 49.1454282,34.9289347 49.0615089,34.4760476 C48.7795815,32.9360234 47.2790895,24.8409266 46.988146,23.567225 C46.8088637,22.7883702 46.9201782,22.0802573 47.3373476,21.3405879 C47.3741056,21.2740073 47.4056621,21.2095073 47.4313234,21.1502089 L47.6307185,20.8877008 L47.8679121,20.5738702 L47.8776218,20.5658944 C47.970904,20.4868298 48.0641863,20.4074185 48.1581621,20.3318218 C48.6679202,19.9202008 49.016775,19.8678379 49.264025,19.8678379 L49.2924605,19.8674911 L49.314654,19.8674911 C49.525146,19.8674911 49.7418798,19.8480718 49.962775,19.8092331 C52.2237427,19.4135637 57.369525,18.8719024 59.8423718,18.6111282 C60.5882831,18.5324105 61.0810492,18.4803944 61.2742024,18.4564669 C61.3099202,18.4547331 61.3428637,18.4529992 61.3723395,18.4529992"/>
    <g transform="translate(98.484 32.249)">
      <mask id="logo-d" fill="#fff">
        <use xlink:href="#logo-c"/>
      </mask>
      <path fill="#F6A132" d="M35.4324855,7.75064597 C35.1685903,7.49299274 34.8734855,7.25996048 34.5475177,7.04842823 C33.9413565,6.65726694 27.4903161,2.37772661 24.8745984,0.623395968 C24.5295581,0.392444355 24.1703,0.289452419 23.7562516,0.348404032 C21.2757758,0.708008871 18.7949532,1.06796048 16.3165581,1.41958952 C15.8730339,1.48200887 15.5331952,1.68417823 15.2783161,2.04343629 C14.4900984,3.14825887 9.17925161,10.5602105 7.30805806,13.162404 C7.21200161,13.2966056 7.1194129,13.4262992 7.2068,13.5913637 C7.22725968,13.6295089 7.2498,13.6579444 7.27442097,13.6836056 C7.37984032,13.7865976 7.52409839,13.7897185 7.67633226,13.7761944 C8.66567903,13.6794444 19.103929,12.5947347 20.0280823,12.5656056 C20.3051548,12.5576298 20.5839613,12.5697669 20.8651952,12.6113798 C20.2201952,12.7053556 4.69892903,15.7000976 2.71919516,16.0416702 C2.0468,16.157146 1.81376774,16.4439282 1.83284032,17.1288073 C1.86023548,18.2908476 1.8748,19.4469927 1.52559839,20.5785169 C1.21592903,21.5820815 0.797025806,22.5454202 0.421469355,23.5233234 C0.271316129,23.9169121 0.285533871,24.1260169 0.525848387,24.3569685 C0.576824194,24.4075976 0.637162903,24.4616944 0.712066129,24.514404 C1.79642903,25.3293234 2.87801774,26.1397347 3.95995323,26.9560411 C4.27482419,27.1915008 4.61223548,27.277154 5.00651774,27.2220169 C6.4341871,27.0125653 22.8262032,24.4890895 26.9597516,23.9127508 C27.5610581,23.8309121 28.0298968,23.5857427 28.4203645,23.1019927 C29.2515823,22.0783153 30.1202516,21.0834202 30.9774774,20.0798556 C32.6076629,18.1757185 34.2402758,16.2750492 35.7241226,14.2547427 C36.3171065,13.4443315 36.6978645,12.5569363 36.8032839,11.5533718 C36.8279048,11.3123637 36.8362274,11.0658073 36.8546065,10.8206379 C36.8105661,10.5314282 36.7693,10.2418718 36.7263,9.9498879 C36.7030661,9.91382339 36.6663081,9.87845242 36.6590258,9.83926694 C36.4322355,9.00700887 36.0129855,8.31762177 35.4324855,7.75064597 M34.2624694,8.94667016 L34.2624694,8.94667016 C34.6456548,9.32187984 34.8988,9.75846855 35.0444452,10.2872992 C35.0635177,10.3611621 35.0860581,10.4305169 35.1117194,10.4908556 L35.1335661,10.6333798 L35.1713645,10.8945008 C35.1692839,10.9163476 35.1668565,10.9395815 35.1668565,10.9600411 C35.1578403,11.1022185 35.1498645,11.2433556 35.1356468,11.3855331 C35.067679,12.0423234 34.8176548,12.6592347 34.3727435,13.2681702 C32.977671,15.1723073 31.3963806,17.0213073 29.8674532,18.8099685 L29.7079371,18.9968798 L29.1583,19.6377185 C28.4845177,20.421775 27.7888887,21.2304524 27.1213484,22.0550815 C27.0284129,22.1674363 26.9597516,22.2284685 26.731921,22.2589847 C22.7773081,22.8079282 6.95261452,25.2551137 4.87578387,25.5522992 C4.31123548,25.1295815 3.74738065,24.7020089 3.18387258,24.281025 C2.86102581,24.0410573 2.53609839,23.7948476 2.21394516,23.5527992 C2.24758226,23.4730411 2.27740484,23.3912024 2.31208226,23.3093637 C2.59539677,22.5977831 2.89084839,21.8577669 3.13081613,21.0768315 C3.49284839,19.9054282 3.53723548,18.7978315 3.52197742,17.6056218 C4.6576629,17.408654 5.53638871,16.9887105 8.25717903,16.5122427 C13.5056065,15.5957185 20.6938887,14.3345008 21.1127919,14.2717347 C21.9336065,14.1517508 22.5428887,13.4457185 22.5435823,12.6169282 C22.5449694,12.151904 22.3514694,11.7264121 22.0407597,11.4191702 C21.7973242,11.1809363 21.4762113,11.0134444 21.1148726,10.9583073 C20.7493726,10.9038637 20.3689613,10.8854847 19.9791871,10.8945008 C19.3615823,10.9153073 15.7152516,11.2776863 10.3347032,11.8252427 C12.6293081,8.62867823 15.8886387,4.07796048 16.6050742,3.07370242 C19.0539935,2.72623468 21.4977113,2.37079113 23.9435097,2.01604113 L23.9448968,2.01742823 C26.5498645,3.76274274 33.0286468,8.06170242 33.6431306,8.4584121 C33.8758161,8.60717823 34.0842274,8.77362984 34.2624694,8.94667016" mask="url(#logo-d)"/>
    </g>
    <path fill="#6D6E70" d="M100.381211,74.1783637 C100.381211,73.7452427 100.027848,73.3922266 99.5950742,73.3922266 C99.1623,73.3922266 98.8092839,73.7452427 98.8092839,74.1783637 C98.8092839,74.6111379 99.1623,74.9645008 99.5950742,74.9645008 C100.027848,74.9645008 100.381211,74.6111379 100.381211,74.1783637"/>
    <path fill="#DCDC1F" d="M124.599852,78.6440871 C124.074489,79.3411032 123.306037,79.8297081 122.638844,79.8879661 C120.147965,80.1105952 112.542166,80.8769661 111.23344,81.0340548 C111.115884,81.0493129 110.999021,81.0552081 110.888053,81.0552081 C110.314835,81.0552081 109.819989,80.8662161 109.276594,80.4493935 C107.37315,78.983579 103.863448,76.3026677 100.415126,73.6807081 L100.414779,63.0791274 C102.975013,64.8698694 105.743658,66.8072968 107.132835,67.7827726 C107.271892,67.8809097 107.407827,67.9800871 107.539602,68.0799581 C107.618319,68.1385629 107.697037,68.1954339 107.774715,68.2536919 C108.609053,68.8841274 109.293585,69.2062806 109.814787,69.2062806 C110.33911,69.2062806 110.840892,68.960071 111.155416,68.5432484 C111.714069,67.8060065 111.570852,66.7587484 110.836731,66.197321 L110.353327,65.8339016 L109.90044,65.4881677 C109.305723,64.9974823 108.295916,64.159329 107.249352,63.294821 C106.587013,62.7479581 105.908723,62.1872242 105.314698,61.6986194 C109.279021,61.1177726 115.728327,60.1731597 116.631327,60.0261274 C116.67294,60.0198855 116.708658,60.016071 116.742295,60.016071 C116.794311,60.016071 116.870255,60.016071 117.020408,60.1301597 C118.902005,61.5775952 120.7999,62.976829 122.666585,64.288329 C122.851763,64.4180226 122.945045,64.5733774 122.982497,64.80745 C123.514795,68.1923129 124.182335,71.6000629 124.828376,74.8902565 L125.159198,76.5887565 C125.343335,77.4882887 124.8849,78.2626355 124.599852,78.6440871 M126.81019,76.2676435 C126.050755,72.3695548 125.260456,68.4721597 124.643198,64.5473694 C124.536739,63.8728935 124.1969,63.3135468 123.639634,62.9171839 C121.7459,61.5873048 119.884416,60.2126919 118.048594,58.8023613 C117.647029,58.4937323 117.219803,58.339071 116.749577,58.339071 C116.626126,58.339071 116.500247,58.3494742 116.370553,58.3706274 C115.302142,58.5426274 106.25411,59.8662645 102.802666,60.3680468 C102.490569,60.4152081 102.183674,60.4738129 102.088311,60.8289097 C101.990174,61.1874742 102.271755,61.3480306 102.498198,61.531821 C103.133835,62.0540629 107.377311,65.5641113 108.866706,66.7937726 C109.185739,67.0368613 109.505465,67.2809903 109.825537,67.5247726 C109.823456,67.5261597 109.821029,67.5261597 109.816174,67.5261597 C109.736763,67.5261597 109.083094,67.1388129 108.774465,66.9071677 C108.548715,66.7414097 108.324698,66.5701032 108.09236,66.4088532 C106.410852,65.2325952 103.065174,62.918571 100.1599,60.8882081 C100.017029,60.7401355 99.8165935,60.6482403 99.5950048,60.6482403 C99.1858113,60.6482403 98.8494403,60.9617242 98.8126823,61.3608613 C98.8092145,61.3837484 98.8071339,61.407329 98.8071339,61.43195 L98.8071339,61.9566194 L98.8071339,72.46145 L98.8071339,74.3094097 L98.8071339,74.5646355 C102.361223,77.2621919 106.110198,80.123079 108.250489,81.7733774 C109.065061,82.402079 109.917432,82.7280468 110.883892,82.7280468 C111.061787,82.7280468 111.243497,82.7155629 111.429021,82.6947565 C112.763408,82.5380145 120.332102,81.7754581 122.781021,81.5566435 C124.987545,81.3610629 127.314747,78.8577 126.81019,76.2676435"/>
    <path fill="#FFF" d="M38.3502782 50.7016815C38.3502782 50.3410363 38.0891573 50.0344879 37.7330202 49.9793508 37.1362218 49.8860685 36.1600524 49.7872379 34.6325121 49.7872379 31.8132379 49.7872379 30.6050766 50.5931411 30.6050766 52.4209879 30.6050766 53.9388185 31.5656411 54.8990363 34.9733911 54.8990363 36.2248992 54.8990363 37.1365685 54.8178911 37.7181089 54.7357056 38.0801411 54.6843831 38.3502782 54.3771411 38.3502782 54.0112944L38.3502782 50.7016815zM41.8513105 56.3488992C41.8513105 56.7140524 41.5829073 57.023375 41.2212218 57.0729637 39.9932944 57.2408024 37.6192782 57.4710605 34.9733911 57.4710605 28.5292863 57.4710605 27.0731815 55.0543911 27.0731815 52.4518508 27.0731815 49.0749637 29.0248266 47.3091895 34.5087137 47.3091895 35.6052137 47.3091895 36.6718911 47.3688347 37.4604556 47.4361089 37.9896331 47.4815363 38.3350202 47.0900282 38.2365363 46.5677863 37.837746 44.4524637 36.0320927 43.9010927 33.5793589 43.9010927 31.7591411 43.9010927 30.4941089 44.3269315 29.7991734 44.6920847 29.4721653 44.8637379 29.0699073 44.7610927 28.8621895 44.4552379 28.6673024 44.1684556 28.4984234 43.7915121 28.4984234 43.3434798 28.4984234 42.1661815 29.5827863 41.0506089 33.6410847 41.0506089 38.4740766 41.0506089 41.8513105 42.8167298 41.8513105 47.6497218L41.8513105 56.3488992zM45.0233234 53.8016347C45.2116218 53.4638766 45.6287911 53.332796 45.977646 53.4992476 47.0242105 53.9982556 49.1294766 54.7136508 51.6990734 54.7136508 53.8369363 54.7136508 55.3547669 54.2177637 55.3547669 52.8549411 55.3547669 51.7085056 54.6112831 51.150546 52.3808315 50.9029492L49.9641621 50.623796C46.6493476 50.2832637 44.3256137 48.9821669 44.3256137 45.9458121 44.3256137 43.3124089 46.2776056 41.0507476 51.389404 41.0507476 55.695646 41.0507476 58.1743879 42.1039008 58.1743879 43.622425 58.1743879 44.1550702 57.899396 44.5958202 57.6185089 44.8930056 57.3795815 45.1451105 56.9960492 45.1901911 56.7037185 45.0025863 55.9373476 44.5112073 54.1764282 43.7150137 51.4202669 43.7150137 49.0348073 43.7150137 47.8262992 44.3346992 47.8262992 45.6049331 47.8262992 46.689296 48.7560008 47.1848363 50.4600492 47.4019169L53.6202024 47.8045218C57.0591621 48.269546 59.0416702 49.6018524 59.0416702 52.359054 59.0416702 55.4567879 56.5012024 57.4708524 51.8849444 57.4708524 48.4168556 57.4708524 45.8600895 56.5404573 44.6900734 55.9433121 44.3224927 55.7557073 44.1875976 55.2979653 44.3887266 54.9376669L45.0233234 53.8016347zM72.7632129 50.7016815C72.7632129 50.3410363 72.5020919 50.0344879 72.1459548 49.9793508 71.5488097 49.8860685 70.5729871 49.7872379 69.0454468 49.7872379 66.2261726 49.7872379 65.0180113 50.5931411 65.0180113 52.4209879 65.0180113 53.9388185 65.978229 54.8990363 69.3863258 54.8990363 70.6378339 54.8990363 71.5495032 54.8178911 72.1310435 54.7357056 72.4930758 54.6843831 72.7632129 54.3771411 72.7632129 54.0112944L72.7632129 50.7016815zM76.2642452 56.3488992C76.2642452 56.7140524 75.9958419 57.023375 75.6338097 57.0729637 74.406229 57.2408024 72.0322129 57.4710605 69.3863258 57.4710605 62.942221 57.4710605 61.4857694 55.0543911 61.4857694 52.4518508 61.4857694 49.0749637 63.4377613 47.3091895 68.9216484 47.3091895 70.0181484 47.3091895 71.0848258 47.3688347 71.8733903 47.4361089 72.4025677 47.4815363 72.7479548 47.0900282 72.649471 46.5677863 72.2503339 44.4524637 70.4450274 43.9010927 67.9919468 43.9010927 66.1720758 43.9010927 64.9070435 44.3269315 64.2121081 44.6920847 63.8847532 44.8637379 63.4828419 44.7610927 63.2751242 44.4552379 63.0802371 44.1684556 62.9110113 43.7915121 62.9110113 43.3434798 62.9110113 42.1661815 63.9953742 41.0506089 68.0540194 41.0506089 72.8870113 41.0506089 76.2642452 42.8167298 76.2642452 47.6497218L76.2642452 56.3488992zM78.708171 47.6497911C78.708171 43.5290734 81.9303968 41.0506782 86.2678484 41.0506782 90.6670258 41.0506782 93.8275258 43.5290734 93.8275258 47.6497911L93.8275258 56.3059685C93.8275258 56.7099605 93.4998242 57.0369685 93.096179 57.0369685L91.0262839 57.0369685C90.6222919 57.0369685 90.2952839 56.7099605 90.2952839 56.3059685L90.2952839 48.5482831C90.2952839 45.7290089 88.9012516 44.2416944 86.2678484 44.2416944 83.5723726 44.2416944 82.2404129 45.7290089 82.2404129 48.5482831L82.2404129 56.3059685C82.2404129 56.7099605 81.9127113 57.0369685 81.5090661 57.0369685L79.439171 57.0369685C79.0355258 57.0369685 78.708171 56.7099605 78.708171 56.3059685L78.708171 47.6497911zM13.4768589 60.8793653C13.4768589 61.8399298 12.6404395 62.7692847 11.5560766 62.7692847 10.4717137 62.7692847 9.57322177 61.8399298 9.57322177 60.8793653 9.57322177 59.9188008 10.4717137 58.989446 11.5560766 58.989446 12.6404395 58.989446 13.4768589 59.9188008 13.4768589 60.8793653M13.3531039 71.7091234C13.3638105 68.7851234 11.3781815 66.5733976 8.52006855 66.5733976 5.66958468 66.5733976 3.68672984 68.7729863 3.68672984 71.685196 3.68672984 74.2492444 5.29125403 76.3118573 7.68850403 76.7002444 10.6936492 77.1871153 13.3412702 74.7541476 13.3531039 71.7091234M5.51492339 58.989446C6.59893952 58.989446 7.46656855 59.9188008 7.46656855 60.8793653 7.46656855 61.8399298 6.59893952 62.7692847 5.51492339 62.7692847 4.43056048 62.7692847 3.53172177 61.870446 3.53172177 60.8793653 3.53172177 59.8879379 4.43056048 58.989446 5.51492339 58.989446M17.0396169 71.685196C17.0396169 76.301454 13.3530605 79.8954218 8.52006855 79.8954218 3.68672984 79.8954218.000173387097 76.301454.000173387097 71.685196.000173387097 66.9760024 3.68672984 63.4749702 8.52006855 63.4749702 13.3530605 63.4749702 17.0396169 66.9760024 17.0396169 71.685196M27.9418161 66.6353315C25.0611629 66.6353315 23.1299774 68.850525 23.1712435 71.7772992 23.2111226 74.5840895 25.5227194 76.8804282 28.322921 76.6914363 30.9355177 76.5149282 32.7127355 74.523404 32.7127355 71.685404 32.7127355 68.8349202 30.7610903 66.6353315 27.9418161 66.6353315L27.9418161 66.6353315zM32.7127355 60.1985089C32.7127355 59.0832831 33.3636306 58.5565331 34.5717919 58.5565331 34.9900016 58.5565331 35.3887919 58.634904 35.6960339 58.7198637 36.0036226 58.8051702 36.2137677 59.0888315 36.2137677 59.4082105L36.2137677 70.9415734C36.2137677 76.9522105 32.6510097 79.8952831 27.8797435 79.8952831 23.0467516 79.8952831 19.4839935 76.4251137 19.4839935 71.685404 19.4839935 66.883275 22.8917435 63.4751782 27.4150661 63.4751782 29.7582194 63.4751782 31.6228242 64.4912266 32.6572516 65.789896 32.6759774 65.8134766 32.7127355 65.8002992 32.7127355 65.7704766L32.7127355 60.1985089zM47.3328742 72.0878702C42.747479 72.0878702 41.9727855 73.3272411 41.9727855 74.5354024 41.9727855 76.1153056 43.3983742 76.7662008 45.2570839 76.7662008 47.9379952 76.7662008 49.5074952 75.002854 49.902471 72.9478702 49.9856968 72.5137089 49.6611161 72.1076363 49.218979 72.0993137 48.5677371 72.0878702 47.9584548 72.0878702 47.3328742 72.0878702M41.5046403 67.6217653C41.2136968 67.8783782 40.769479 67.8599992 40.5083581 67.5728702 40.1511806 67.1810153 39.8352694 66.6650153 39.8352694 66.1084427 39.8352694 64.9002815 41.3534468 63.4750395 45.4429548 63.4750395 50.0280032 63.4750395 53.7461161 67.0998702 53.7461161 71.5611202 53.7461161 76.2394508 50.1521484 79.8954911 45.3191565 79.8954911 41.0125677 79.8954911 38.657971 77.5405476 38.657971 74.7524831 38.657971 71.9019992 40.5478903 69.9191444 47.6425435 69.9191444 48.0850274 69.9191444 48.4321484 69.9278137 48.7848177 69.9406444 49.3361887 69.9604105 49.6926726 69.3740153 49.4312048 68.8874911 48.7373097 67.5981847 47.1712774 66.3771927 44.7611968 66.4493218 43.1230355 66.4493218 42.1811968 67.0260073 41.5046403 67.6217653M56.1901806 70.0742911C56.1901806 65.9535734 59.4124065 63.4751782 63.7495113 63.4751782 68.1486887 63.4751782 71.3091887 65.9535734 71.3091887 70.0742911L71.3091887 78.737404C71.3091887 79.1375815 70.9849548 79.4614685 70.585471 79.4614685L68.5010113 79.4614685C68.1011806 79.4614685 67.7772935 79.1375815 67.7772935 78.737404L67.7772935 70.9727831C67.7772935 68.1535089 66.3829145 66.6665411 63.7495113 66.6665411 61.0540355 66.6665411 59.7220758 68.1535089 59.7220758 70.9727831L59.7220758 78.737404C59.7220758 79.1375815 59.3978419 79.4614685 58.9983581 79.4614685L56.9138984 79.4614685C56.5144145 79.4614685 56.1901806 79.1375815 56.1901806 78.737404L56.1901806 70.0742911zM73.7534266 65.5509685C73.7534266 64.4045331 74.4348379 63.9089927 75.6429992 63.9089927 76.0688379 63.9089927 76.4738702 63.9901379 76.7831927 64.0768315 77.0814185 64.160404 77.2853218 64.4347024 77.2853218 64.7443718L77.2853218 78.7377508C77.2853218 79.1375815 76.9610879 79.4614685 76.561604 79.4614685L74.4767976 79.4614685C74.0773137 79.4614685 73.7534266 79.1375815 73.7534266 78.7377508L73.7534266 65.5509685zM77.5953379 60.0885815C77.9636121 61.7361056 76.6226363 63.0770815 74.9747653 62.7095008 74.2163702 62.5399282 73.6119427 61.935154 73.4427169 61.1767589 73.0751363 59.5292347 74.4154185 58.1892992 76.0629427 58.5565331 76.8213379 58.7254121 77.4261121 59.3305331 77.5953379 60.0885815L77.5953379 60.0885815zM83.5883935 84.2114427C83.7416677 83.8667492 84.1314419 83.6961363 84.4882726 83.817854 84.9474016 83.9749427 85.6073129 84.1396605 86.267571 84.1396605 87.1352 84.1396605 87.6307403 83.8917169 87.6307403 83.179096 87.6307403 82.6405556 87.1594742 82.337475 86.6524903 82.1956444 86.2665306 82.0877976 86.0459823 81.6810315 86.1572968 81.2957653L86.2238774 81.0651605C86.3244419 80.7166524 86.6656677 80.4950637 87.0249258 80.5449992 88.5757 80.7596524 90.202071 81.4840637 90.202071 83.1173702 90.202071 84.8831444 88.7771758 85.9983702 86.5463774 85.9983702 85.321571 85.9983702 84.4119823 85.7750476 83.8411919 85.5659427 83.4434419 85.4206444 83.2502887 84.9719185 83.4222887 84.5849185L83.5883935 84.2114427zM80.4636113 76.2172573C80.6505226 75.8826202 81.0638774 75.7515395 81.4099581 75.9159105 82.4579097 76.4156121 84.5524258 77.1379427 87.1352 77.1379427 89.2727161 77.1379427 90.7908935 76.6424024 90.7908935 75.2788863 90.7908935 74.1327976 90.0474097 73.5748379 87.8166113 73.3272411L85.4002887 73.0484347C82.0851274 72.7075556 79.7613935 71.4061121 79.7613935 68.370104 79.7613935 65.7370476 81.7133855 63.4750395 86.8255306 63.4750395 91.1626355 63.4750395 93.6101677 64.5285395 93.6101677 66.0467169 93.6101677 66.5634105 93.3334419 67.0090153 93.050821 67.3114024 92.8136274 67.5655879 92.4297484 67.613096 92.1367242 67.4251444 91.3689661 66.9337653 89.6087403 66.1396524 86.8563935 66.1396524 84.4705871 66.1396524 83.2624258 66.7593379 83.2624258 68.0295718 83.2624258 69.1135879 84.1609177 69.609475 85.8954823 69.8265556L89.0559823 70.2291605C92.5258048 70.6938379 94.47745 72.0257976 94.47745 74.7836927 94.47745 77.8814266 91.937329 79.8954911 87.321071 79.8954911 83.8481274 79.8954911 81.2889339 78.9623218 80.1209984 78.3651766 79.7561919 78.1786121 79.6219903 77.7246847 79.822079 77.3668137L80.4636113 76.2172573z"/>
  </g>
</svg>
