<svg width="180" height="34" viewBox="0 0 180 34" fill="none" xmlns="http://www.w3.org/2000/svg">
<g clip-path="url(#clip0)">
<path d="M65.155 25.927H64.9778C64.7447 25.9214 64.5228 25.8284 64.3579 25.6671C64.193 25.5059 64.0979 25.2888 64.0922 25.0608V23.675C63.0885 25.3495 60.9628 26.2156 58.9552 26.2156C55.1172 26.2156 52.0469 23.4439 52.0469 19.2864C52.0469 15.1288 55.1172 12.3572 59.0143 12.3572C60.9628 12.3572 63.0885 13.1656 64.1513 14.8402V13.5121C64.157 13.2841 64.2521 13.067 64.417 12.9058C64.5819 12.7446 64.8039 12.6515 65.0369 12.646H65.214C65.4471 12.6515 65.6691 12.7446 65.834 12.9058C65.9988 13.067 66.094 13.2841 66.0997 13.5121V25.0611C66.0407 25.5228 65.6274 25.927 65.155 25.927ZM59.0143 24.3101C61.7894 24.3101 64.1513 22.5201 64.1513 19.2864C64.1513 16.0526 61.4939 14.3204 59.0143 14.3204C56.18 14.3204 53.9954 16.2259 53.9954 19.2864C53.9954 22.1736 56.18 24.3102 59.0143 24.3102V24.3101Z" fill="#00377A"/>
<path d="M81.806 14.6092L72.8901 24.0215H81.1564C81.3895 24.027 81.6115 24.1201 81.7764 24.2813C81.9413 24.4425 82.0364 24.6596 82.0421 24.8876V25.0031C82.0364 25.231 81.9413 25.4481 81.7764 25.6093C81.6115 25.7706 81.3895 25.8636 81.1564 25.8692H71.1777C70.9446 25.8636 70.7226 25.7706 70.5578 25.6093C70.3929 25.4481 70.2977 25.231 70.2921 25.0031V24.4834C70.2863 24.3762 70.3045 24.269 70.3452 24.1693C70.386 24.0696 70.4485 23.9797 70.5282 23.906L79.2671 14.4941H71.65C71.4169 14.4886 71.1949 14.3955 71.03 14.2343C70.8651 14.0731 70.77 13.856 70.7643 13.628V13.5125C70.77 13.2846 70.8651 13.0675 71.03 12.9063C71.1949 12.745 71.4169 12.652 71.65 12.6464H81.0972C81.3303 12.652 81.5523 12.745 81.7172 12.9063C81.882 13.0675 81.9772 13.2846 81.9829 13.5125V13.9745C82.0422 14.2627 81.9831 14.4359 81.806 14.6092Z" fill="#00377A"/>
<path d="M85.4668 19.2287C85.4668 15.0133 88.4781 12.3572 92.3165 12.3572C96.1548 12.3572 98.9886 15.0134 98.9886 19.2287C98.9829 19.4566 98.8877 19.6737 98.7229 19.8349C98.558 19.9962 98.336 20.0892 98.1029 20.0948H87.4744C87.7697 22.6936 89.8363 24.3101 92.3752 24.3101C94.0285 24.3101 95.4457 23.6172 96.3313 22.4618C96.4295 22.3272 96.5652 22.223 96.7222 22.1616C96.8792 22.1002 97.0509 22.0841 97.2169 22.1153L97.3941 22.1731C97.6208 22.2334 97.8174 22.3718 97.9477 22.5629C98.078 22.754 98.133 22.9848 98.1027 23.2126C98.0904 23.3352 98.05 23.4536 97.9845 23.5589C96.7446 25.2335 94.737 26.2152 92.4342 26.2152C88.4781 26.2157 85.4668 23.444 85.4668 19.2287ZM96.9808 18.3625C96.6265 15.8218 94.8551 14.2627 92.3161 14.2627C89.7772 14.2627 87.8287 15.8796 87.4153 18.3625H96.9808Z" fill="#00377A"/>
<path d="M111.211 13.6853C111.197 13.7995 111.159 13.9099 111.101 14.0098C111.042 14.1098 110.964 14.1973 110.871 14.2672C110.777 14.3371 110.67 14.3881 110.556 14.417C110.442 14.446 110.324 14.4523 110.207 14.4358H110.089C109.758 14.3721 109.423 14.3335 109.086 14.3203C106.31 14.3203 105.189 17.4962 105.189 21.0189V25.061C105.183 25.2889 105.088 25.506 104.923 25.6672C104.758 25.8285 104.536 25.9215 104.303 25.9271H104.126C103.893 25.9215 103.671 25.8285 103.506 25.6672C103.341 25.506 103.246 25.2889 103.24 25.061V13.5121C103.246 13.2841 103.341 13.067 103.506 12.9058C103.671 12.7446 103.893 12.6515 104.126 12.646H104.303C104.536 12.6515 104.758 12.7446 104.923 12.9058C105.088 13.067 105.183 13.2841 105.189 13.5121V15.6486C105.838 13.397 107.079 12.3572 109.086 12.3572C109.583 12.3578 110.078 12.416 110.562 12.5305C110.764 12.5852 110.94 12.7078 111.058 12.8768C111.177 13.0458 111.231 13.2503 111.211 13.4544L111.211 13.6853Z" fill="#00377A"/>
<path d="M115.934 6.35181C116.761 6.35181 117.41 6.92925 117.41 7.73768C117.41 8.54611 116.761 9.12356 115.934 9.12356C115.107 9.12356 114.458 8.54611 114.458 7.73768C114.458 6.92925 115.107 6.35181 115.934 6.35181ZM115.993 25.927H115.875C115.642 25.9214 115.42 25.8284 115.255 25.6671C115.09 25.5059 114.995 25.2888 114.989 25.0608V13.5118C114.995 13.2839 115.09 13.0668 115.255 12.9056C115.42 12.7443 115.642 12.6513 115.875 12.6457H115.993C116.226 12.6513 116.448 12.7443 116.613 12.9056C116.778 13.0668 116.873 13.2839 116.879 13.5118V25.0608C116.873 25.2888 116.778 25.5059 116.613 25.6671C116.448 25.8284 116.226 25.9214 115.993 25.927H115.993Z" fill="#00377A"/>
<path d="M132.644 23.6751C132.814 23.8446 132.91 24.0727 132.91 24.3103C132.91 24.5479 132.814 24.776 132.644 24.9455C132.585 25.0033 132.526 25.061 132.467 25.061C131.269 25.8147 129.876 26.2156 128.452 26.2159C124.614 26.2159 121.366 23.4441 121.366 19.2866C121.366 15.129 124.614 12.415 128.452 12.415C129.869 12.415 131.227 12.8191 132.467 13.5121C132.88 13.7431 132.998 14.3205 132.762 14.7247C132.703 14.7824 132.703 14.8402 132.644 14.8978L132.526 15.0133C132.381 15.1558 132.19 15.2451 131.986 15.2661C131.781 15.2871 131.576 15.2387 131.404 15.1288C130.514 14.6009 129.493 14.3213 128.451 14.3204C125.617 14.3204 123.255 16.2259 123.255 19.3441C123.255 22.4624 125.617 24.4256 128.451 24.4256C129.493 24.4247 130.514 24.1451 131.404 23.6172C131.576 23.5073 131.781 23.4588 131.986 23.4799C132.19 23.5009 132.381 23.5902 132.526 23.7327L132.644 23.6751Z" fill="#00377A"/>
<path d="M149.354 25.927H149.177C148.944 25.9214 148.722 25.8284 148.557 25.6671C148.392 25.5058 148.297 25.2887 148.292 25.0608V23.675C147.288 25.3495 145.162 26.2154 143.154 26.2154C139.316 26.2154 136.246 23.4437 136.246 19.2862C136.246 15.0708 139.317 12.4147 143.154 12.4147C145.103 12.4147 147.229 13.2231 148.291 14.8977V13.512C148.297 13.284 148.392 13.067 148.557 12.9057C148.722 12.7445 148.944 12.6514 149.177 12.6459H149.354C149.587 12.6514 149.809 12.7445 149.974 12.9057C150.139 13.067 150.234 13.284 150.24 13.512V25.061C150.242 25.1753 150.221 25.2889 150.177 25.395C150.133 25.501 150.068 25.5974 149.985 25.6782C149.903 25.7591 149.804 25.8228 149.696 25.8656C149.587 25.9084 149.471 25.9293 149.354 25.9272L149.354 25.927ZM143.213 24.3101C145.989 24.3101 148.351 22.5201 148.351 19.2864C148.351 16.0527 145.693 14.3204 143.213 14.3204C140.379 14.3204 138.195 16.226 138.195 19.2864C138.195 22.1736 140.379 24.3101 143.213 24.3101Z" fill="#00377A"/>
<path d="M163.643 13.6853C163.629 13.7995 163.592 13.9099 163.533 14.0098C163.475 14.1098 163.397 14.1973 163.303 14.2672C163.21 14.3371 163.103 14.3881 162.989 14.417C162.875 14.446 162.756 14.4523 162.64 14.4358H162.522C162.191 14.3721 161.855 14.3335 161.518 14.3203C158.743 14.3203 157.621 17.4962 157.621 21.0189V25.061C157.616 25.2889 157.52 25.506 157.356 25.6672C157.191 25.8285 156.969 25.9215 156.736 25.9271H156.558C156.325 25.9215 156.103 25.8285 155.939 25.6672C155.774 25.506 155.679 25.2889 155.673 25.061V13.5121C155.679 13.2841 155.774 13.067 155.939 12.9058C156.103 12.7446 156.325 12.6515 156.558 12.646H156.736C156.969 12.6515 157.191 12.7446 157.356 12.9058C157.52 13.067 157.616 13.2841 157.621 13.5121V15.6486C158.271 13.397 159.511 12.3572 161.518 12.3572C162.016 12.3578 162.511 12.416 162.994 12.5305C163.196 12.5852 163.372 12.7078 163.491 12.8768C163.61 13.0458 163.664 13.2503 163.644 13.4544L163.643 13.6853Z" fill="#00377A"/>
<path d="M179.113 25.927H178.936C178.703 25.9214 178.481 25.8284 178.316 25.6671C178.151 25.5059 178.056 25.2888 178.05 25.0609V23.675C177.046 25.3495 174.921 26.2158 172.913 26.2158C169.075 26.2158 166.005 23.444 166.005 19.2865C166.005 15.0711 169.075 12.415 172.913 12.415C174.862 12.415 176.987 13.2234 178.05 14.898V6.40951C178.056 6.18156 178.151 5.96448 178.316 5.80324C178.481 5.642 178.703 5.54897 178.936 5.5434H179.113C179.346 5.54897 179.568 5.642 179.733 5.80324C179.898 5.96448 179.993 6.18156 179.999 6.40951V25.0604C179.993 25.2884 179.898 25.5056 179.733 25.667C179.568 25.8283 179.346 25.9214 179.113 25.927ZM172.972 24.3101C175.747 24.3101 178.109 22.5201 178.109 19.2864C178.109 16.0526 175.452 14.3204 172.972 14.3204C170.138 14.3204 167.953 16.2259 167.953 19.2864C167.953 22.1736 170.138 24.3102 172.972 24.3102V24.3101Z" fill="#00377A"/>
<path d="M48.0915 33.7802H40.5336C39.9559 33.7808 39.3874 33.638 38.8814 33.3654C38.3755 33.0927 37.9484 32.699 37.6403 32.2211L17.9781 1.44355C17.8463 1.22676 17.8034 0.969126 17.8582 0.722643C17.913 0.476159 18.0613 0.259174 18.2733 0.115469C18.4334 0.0228639 18.6195 -0.0175798 18.8047 -2.13333e-05H22.6427C24.3747 0.00380721 26.0779 0.434333 27.5949 1.25181C29.1119 2.06929 30.3938 3.24736 31.3224 4.67727L48.918 32.2783C48.9902 32.3838 49.0398 32.5024 49.0641 32.627C49.0883 32.7516 49.0866 32.8798 49.059 33.0037C49.0315 33.1277 48.9787 33.245 48.9037 33.3485C48.8288 33.4521 48.7332 33.5398 48.6228 33.6064C48.5506 33.6686 48.4663 33.716 48.3751 33.7458C48.2838 33.7756 48.1874 33.7873 48.0915 33.7802Z" fill="#00377A"/>
<path d="M29.787 23.7909C28.7113 22.1165 27.2582 20.705 25.5389 19.6641C23.8197 18.6232 21.8798 17.9807 19.8676 17.7855L16.502 17.4969C16.1911 17.4675 15.8912 17.3689 15.6251 17.2088C15.3591 17.0487 15.134 16.8312 14.9671 16.5729L13.4323 14.1476C13.1371 13.7435 12.5466 13.5702 12.1332 13.859C12.0076 13.9242 11.9047 14.0247 11.8381 14.1476L2.50878 28.6987L0.146101 32.3366C0.0142515 32.5534 -0.028606 32.811 0.0261771 33.0575C0.0809601 33.304 0.229305 33.521 0.441278 33.6647C0.618362 33.7802 0.795559 33.838 0.972643 33.7802H8.53052C9.10824 33.7807 9.67667 33.638 10.1827 33.3654C10.6886 33.0927 11.1157 32.699 11.4238 32.2211L17.1509 23.3286C19.4658 22.8761 21.8171 22.6249 24.1773 22.5781C28.0156 22.5779 29.787 23.7909 29.787 23.7909Z" fill="#549344"/>
<path d="M2.50786 28.6987L0.146101 32.3365C0.0142515 32.5533 -0.028606 32.8109 0.0261771 33.0574C0.0809601 33.3039 0.229305 33.5208 0.441278 33.6646C0.601441 33.757 0.787518 33.7974 0.972643 33.7797H8.53052C9.10821 33.7803 9.67662 33.6377 10.1826 33.3651C10.6886 33.0925 11.1156 32.6988 11.4238 32.221L17.1509 23.3285C11.9935 24.2925 7.04166 26.1085 2.50786 28.6987Z" fill="#336E27"/>
</g>
<defs>
<clipPath id="clip0">
<rect width="180" height="33.8028" fill="white"/>
</clipPath>
</defs>
</svg>
